# MagicaVoxel @ Ephtracy

# group
o 

# material
mtllib BridgeObject.mtl
usemtl palette

# normals
vn -1 0 0
vn 1 0 0
vn 0 0 1
vn 0 0 -1
vn 0 -1 0
vn 0 1 0

# texcoords
vt 0.396484 0.5
vt 0.994141 0.5

# verts
v -0.8 0 0.8
v -0.8 0 0.4
v -0.8 0 -1.19209e-007
v -0.8 0 -0.4
v -0.8 0.2 0.8
v -0.8 0.2 0.4
v -0.8 0.2 -1.19209e-007
v -0.8 0.2 -0.4
v -0.7 0 1
v -0.7 0 0.8
v -0.7 0 0.4
v -0.7 0 -1.19209e-007
v -0.7 0 -0.4
v -0.7 0 -0.6
v -0.7 0.1 1
v -0.7 0.1 0.8
v -0.7 0.1 0.4
v -0.7 0.1 -1.19209e-007
v -0.7 0.1 -0.4
v -0.7 0.1 -0.6
v 0.7 0 1
v 0.7 0 0.8
v 0.7 0 0.4
v 0.7 0 -1.19209e-007
v 0.7 0 -0.4
v 0.7 0 -0.6
v 0.7 0.1 1
v 0.7 0.1 0.8
v 0.7 0.1 0.4
v 0.7 0.1 -1.19209e-007
v 0.7 0.1 -0.4
v 0.7 0.1 -0.6
v 0.8 0 0.8
v 0.8 0 0.4
v 0.8 0 -1.19209e-007
v 0.8 0 -0.4
v 0.8 0.2 0.8
v 0.8 0.2 0.4
v 0.8 0.2 -1.19209e-007
v 0.8 0.2 -0.4
v -0.7 0 1
v -0.7 0.1 1
v -0.3 0 1
v -0.3 0.1 1
v -0.2 0 1
v -0.2 0.1 1
v 0.2 0 1
v 0.2 0.1 1
v 0.3 0 1
v 0.3 0.1 1
v 0.7 0 1
v 0.7 0.1 1
v -0.8 0 0.8
v -0.8 0.2 0.8
v -0.7 0 0.8
v -0.7 0.1 0.8
v -0.3 0.1 0.8
v -0.2 0.1 0.8
v 0.2 0.1 0.8
v 0.3 0.1 0.8
v 0.7 0 0.8
v 0.7 0.1 0.8
v 0.8 0 0.8
v 0.8 0.2 0.8
v -0.8 0 -1.19209e-007
v -0.8 0.2 -1.19209e-007
v -0.7 0 -1.19209e-007
v -0.7 0.1 -1.19209e-007
v -0.3 0.1 -1.19209e-007
v -0.2 0.1 -1.19209e-007
v 0.2 0.1 -1.19209e-007
v 0.3 0.1 -1.19209e-007
v 0.7 0 -1.19209e-007
v 0.7 0.1 -1.19209e-007
v 0.8 0 -1.19209e-007
v 0.8 0.2 -1.19209e-007
v -0.8 0 0.4
v -0.8 0.2 0.4
v -0.7 0 0.4
v -0.7 0.1 0.4
v -0.3 0.1 0.4
v -0.2 0.1 0.4
v 0.2 0.1 0.4
v 0.3 0.1 0.4
v 0.7 0 0.4
v 0.7 0.1 0.4
v 0.8 0 0.4
v 0.8 0.2 0.4
v -0.8 0 -0.4
v -0.8 0.2 -0.4
v -0.7 0 -0.4
v -0.7 0.1 -0.4
v -0.3 0.1 -0.4
v -0.2 0.1 -0.4
v 0.2 0.1 -0.4
v 0.3 0.1 -0.4
v 0.7 0 -0.4
v 0.7 0.1 -0.4
v 0.8 0 -0.4
v 0.8 0.2 -0.4
v -0.7 0 -0.6
v -0.7 0.1 -0.6
v -0.3 0 -0.6
v -0.3 0.1 -0.6
v -0.2 0 -0.6
v -0.2 0.1 -0.6
v 0.2 0 -0.6
v 0.2 0.1 -0.6
v 0.3 0 -0.6
v 0.3 0.1 -0.6
v 0.7 0 -0.6
v 0.7 0.1 -0.6
v -0.7 0 1
v -0.3 0 1
v -0.2 0 1
v 0.2 0 1
v 0.3 0 1
v 0.7 0 1
v -0.8 0 0.8
v -0.7 0 0.8
v -0.3 0 0.8
v -0.2 0 0.8
v 0.2 0 0.8
v 0.3 0 0.8
v 0.7 0 0.8
v 0.8 0 0.8
v -0.8 0 0.4
v -0.7 0 0.4
v -0.3 0 0.4
v -0.2 0 0.4
v 0.2 0 0.4
v 0.3 0 0.4
v 0.7 0 0.4
v 0.8 0 0.4
v -0.8 0 -1.19209e-007
v -0.7 0 -1.19209e-007
v -0.3 0 -1.19209e-007
v -0.2 0 -1.19209e-007
v 0.2 0 -1.19209e-007
v 0.3 0 -1.19209e-007
v 0.7 0 -1.19209e-007
v 0.8 0 -1.19209e-007
v -0.8 0 -0.4
v -0.7 0 -0.4
v -0.3 0 -0.4
v -0.2 0 -0.4
v 0.2 0 -0.4
v 0.3 0 -0.4
v 0.7 0 -0.4
v 0.8 0 -0.4
v -0.7 0 -0.6
v -0.3 0 -0.6
v -0.2 0 -0.6
v 0.2 0 -0.6
v 0.3 0 -0.6
v 0.7 0 -0.6
v -0.7 0.1 1
v -0.3 0.1 1
v -0.2 0.1 1
v 0.2 0.1 1
v 0.3 0.1 1
v 0.7 0.1 1
v -0.7 0.1 0.8
v -0.3 0.1 0.8
v -0.2 0.1 0.8
v 0.2 0.1 0.8
v 0.3 0.1 0.8
v 0.7 0.1 0.8
v -0.7 0.1 0.4
v -0.3 0.1 0.4
v -0.2 0.1 0.4
v 0.2 0.1 0.4
v 0.3 0.1 0.4
v 0.7 0.1 0.4
v -0.7 0.1 -1.19209e-007
v -0.3 0.1 -1.19209e-007
v -0.2 0.1 -1.19209e-007
v 0.2 0.1 -1.19209e-007
v 0.3 0.1 -1.19209e-007
v 0.7 0.1 -1.19209e-007
v -0.7 0.1 -0.4
v -0.3 0.1 -0.4
v -0.2 0.1 -0.4
v 0.2 0.1 -0.4
v 0.3 0.1 -0.4
v 0.7 0.1 -0.4
v -0.7 0.1 -0.6
v -0.3 0.1 -0.6
v -0.2 0.1 -0.6
v 0.2 0.1 -0.6
v 0.3 0.1 -0.6
v 0.7 0.1 -0.6
v -0.8 0.2 0.8
v 0.8 0.2 0.8
v -0.8 0.2 0.4
v 0.8 0.2 0.4
v -0.8 0.2 -1.19209e-007
v 0.8 0.2 -1.19209e-007
v -0.8 0.2 -0.4
v 0.8 0.2 -0.4

# faces
f 5/1/1 2/1/1 1/1/1
f 6/1/1 2/1/1 5/1/1
f 7/1/1 4/1/1 3/1/1
f 8/1/1 4/1/1 7/1/1
f 15/1/1 10/1/1 9/1/1
f 16/1/1 10/1/1 15/1/1
f 17/1/1 12/1/1 11/1/1
f 18/1/1 12/1/1 17/1/1
f 19/1/1 14/1/1 13/1/1
f 20/1/1 14/1/1 19/1/1
f 21/1/2 22/1/2 27/1/2
f 27/1/2 22/1/2 28/1/2
f 23/1/2 24/1/2 29/1/2
f 29/1/2 24/1/2 30/1/2
f 25/1/2 26/1/2 31/1/2
f 31/1/2 26/1/2 32/1/2
f 33/1/2 34/1/2 37/1/2
f 37/1/2 34/1/2 38/1/2
f 35/1/2 36/1/2 39/1/2
f 39/1/2 36/1/2 40/1/2
f 43/1/3 42/1/3 41/1/3
f 44/1/3 42/1/3 43/1/3
f 45/2/3 44/2/3 43/2/3
f 46/2/3 44/2/3 45/2/3
f 47/1/3 46/1/3 45/1/3
f 48/1/3 46/1/3 47/1/3
f 49/2/3 48/2/3 47/2/3
f 50/2/3 48/2/3 49/2/3
f 51/1/3 50/1/3 49/1/3
f 52/1/3 50/1/3 51/1/3
f 55/1/3 54/1/3 53/1/3
f 56/1/3 54/1/3 55/1/3
f 57/1/3 54/1/3 56/1/3
f 58/1/3 54/1/3 57/1/3
f 59/1/3 54/1/3 58/1/3
f 60/1/3 54/1/3 59/1/3
f 62/1/3 54/1/3 60/1/3
f 63/1/3 62/1/3 61/1/3
f 64/1/3 54/1/3 62/1/3
f 64/1/3 62/1/3 63/1/3
f 67/1/3 66/1/3 65/1/3
f 68/1/3 66/1/3 67/1/3
f 69/1/3 66/1/3 68/1/3
f 70/1/3 66/1/3 69/1/3
f 71/1/3 66/1/3 70/1/3
f 72/1/3 66/1/3 71/1/3
f 74/1/3 66/1/3 72/1/3
f 75/1/3 74/1/3 73/1/3
f 76/1/3 66/1/3 74/1/3
f 76/1/3 74/1/3 75/1/3
f 77/1/4 78/1/4 79/1/4
f 79/1/4 78/1/4 80/1/4
f 80/1/4 78/1/4 81/1/4
f 81/1/4 78/1/4 82/1/4
f 82/1/4 78/1/4 83/1/4
f 83/1/4 78/1/4 84/1/4
f 84/1/4 78/1/4 86/1/4
f 85/1/4 86/1/4 87/1/4
f 86/1/4 78/1/4 88/1/4
f 87/1/4 86/1/4 88/1/4
f 89/1/4 90/1/4 91/1/4
f 91/1/4 90/1/4 92/1/4
f 92/1/4 90/1/4 93/1/4
f 93/1/4 90/1/4 94/1/4
f 94/1/4 90/1/4 95/1/4
f 95/1/4 90/1/4 96/1/4
f 96/1/4 90/1/4 98/1/4
f 97/1/4 98/1/4 99/1/4
f 98/1/4 90/1/4 100/1/4
f 99/1/4 98/1/4 100/1/4
f 101/1/4 102/1/4 103/1/4
f 103/1/4 102/1/4 104/1/4
f 103/2/4 104/2/4 105/2/4
f 105/2/4 104/2/4 106/2/4
f 105/1/4 106/1/4 107/1/4
f 107/1/4 106/1/4 108/1/4
f 107/2/4 108/2/4 109/2/4
f 109/2/4 108/2/4 110/2/4
f 109/1/4 110/1/4 111/1/4
f 111/1/4 110/1/4 112/1/4
f 120/1/5 114/1/5 113/1/5
f 121/2/5 115/2/5 114/2/5
f 121/1/5 114/1/5 120/1/5
f 122/1/5 116/1/5 115/1/5
f 122/2/5 115/2/5 121/2/5
f 123/2/5 117/2/5 116/2/5
f 123/1/5 116/1/5 122/1/5
f 124/1/5 118/1/5 117/1/5
f 124/2/5 117/2/5 123/2/5
f 125/1/5 118/1/5 124/1/5
f 127/1/5 123/1/5 122/1/5
f 127/1/5 126/1/5 125/1/5
f 127/1/5 125/1/5 124/1/5
f 127/1/5 124/1/5 123/1/5
f 127/1/5 120/1/5 119/1/5
f 127/1/5 122/1/5 121/1/5
f 127/1/5 121/1/5 120/1/5
f 128/1/5 126/1/5 127/1/5
f 129/1/5 126/1/5 128/1/5
f 130/1/5 126/1/5 129/1/5
f 131/1/5 126/1/5 130/1/5
f 132/1/5 126/1/5 131/1/5
f 133/1/5 126/1/5 132/1/5
f 134/1/5 126/1/5 133/1/5
f 136/1/5 129/1/5 128/1/5
f 137/2/5 130/2/5 129/2/5
f 137/1/5 129/1/5 136/1/5
f 138/1/5 131/1/5 130/1/5
f 138/2/5 130/2/5 137/2/5
f 139/2/5 132/2/5 131/2/5
f 139/1/5 131/1/5 138/1/5
f 140/1/5 133/1/5 132/1/5
f 140/2/5 132/2/5 139/2/5
f 141/1/5 133/1/5 140/1/5
f 143/1/5 139/1/5 138/1/5
f 143/1/5 142/1/5 141/1/5
f 143/1/5 141/1/5 140/1/5
f 143/1/5 140/1/5 139/1/5
f 143/1/5 136/1/5 135/1/5
f 143/1/5 138/1/5 137/1/5
f 143/1/5 137/1/5 136/1/5
f 144/1/5 142/1/5 143/1/5
f 145/1/5 142/1/5 144/1/5
f 146/1/5 142/1/5 145/1/5
f 147/1/5 142/1/5 146/1/5
f 148/1/5 142/1/5 147/1/5
f 149/1/5 142/1/5 148/1/5
f 150/1/5 142/1/5 149/1/5
f 151/1/5 145/1/5 144/1/5
f 152/2/5 146/2/5 145/2/5
f 152/1/5 145/1/5 151/1/5
f 153/1/5 147/1/5 146/1/5
f 153/2/5 146/2/5 152/2/5
f 154/2/5 148/2/5 147/2/5
f 154/1/5 147/1/5 153/1/5
f 155/1/5 149/1/5 148/1/5
f 155/2/5 148/2/5 154/2/5
f 156/1/5 149/1/5 155/1/5
f 157/1/6 158/1/6 163/1/6
f 158/2/6 159/2/6 164/2/6
f 163/1/6 158/1/6 164/1/6
f 159/1/6 160/1/6 165/1/6
f 164/2/6 159/2/6 165/2/6
f 160/2/6 161/2/6 166/2/6
f 165/1/6 160/1/6 166/1/6
f 161/1/6 162/1/6 167/1/6
f 166/2/6 161/2/6 167/2/6
f 167/1/6 162/1/6 168/1/6
f 169/1/6 170/1/6 175/1/6
f 170/2/6 171/2/6 176/2/6
f 175/1/6 170/1/6 176/1/6
f 171/1/6 172/1/6 177/1/6
f 176/2/6 171/2/6 177/2/6
f 172/2/6 173/2/6 178/2/6
f 177/1/6 172/1/6 178/1/6
f 173/1/6 174/1/6 179/1/6
f 178/2/6 173/2/6 179/2/6
f 179/1/6 174/1/6 180/1/6
f 181/1/6 182/1/6 187/1/6
f 182/2/6 183/2/6 188/2/6
f 187/1/6 182/1/6 188/1/6
f 183/1/6 184/1/6 189/1/6
f 188/2/6 183/2/6 189/2/6
f 184/2/6 185/2/6 190/2/6
f 189/1/6 184/1/6 190/1/6
f 185/1/6 186/1/6 191/1/6
f 190/2/6 185/2/6 191/2/6
f 191/1/6 186/1/6 192/1/6
f 193/1/6 194/1/6 195/1/6
f 195/1/6 194/1/6 196/1/6
f 197/1/6 198/1/6 199/1/6
f 199/1/6 198/1/6 200/1/6
