# MagicaVoxel @ Ephtracy

# group
o 

# material
mtllib Lantern.mtl
usemtl palette

# normals
vn -1 0 0
vn 1 0 0
vn 0 0 1
vn 0 0 -1
vn 0 -1 0
vn 0 1 0

# texcoords
vt 0.0214844 0.5
vt 0.115234 0.5
vt 0.947266 0.5
vt 0.966797 0.5
vt 0.994141 0.5

# verts
v -1 0.4 -0.1
v -1 0.4 -0.2
v -1 0.5 -0.1
v -1 0.5 -0.2
v -0.9 0.4 0.5
v -0.9 0.4 0.4
v -0.9 0.4 -0.7
v -0.9 0.4 -0.8
v -0.9 0.5 0.5
v -0.9 0.5 0.4
v -0.9 0.5 -0.7
v -0.9 0.5 -0.8
v -0.8 0.4 0.4
v -0.8 0.4 0.3
v -0.8 0.4 -0.6
v -0.8 0.4 -0.7
v -0.8 0.5 0.4
v -0.8 0.5 0.3
v -0.8 0.5 -0.6
v -0.8 0.5 -0.7
v -0.6 0 0.2
v -0.6 0 -0.5
v -0.6 0.1 0.0999999
v -0.6 0.1 -0.1
v -0.6 0.1 -0.2
v -0.6 0.1 -0.4
v -0.6 0.8 0.0999999
v -0.6 0.8 -0.1
v -0.6 0.8 -0.2
v -0.6 0.8 -0.4
v -0.6 0.9 0.2
v -0.6 0.9 -0.5
v -0.5 0.9 0.0999999
v -0.5 0.9 -0.4
v -0.5 1 0.0999999
v -0.5 1 -0.4
v -0.4 0.1 -5.96046e-008
v -0.4 0.1 -0.3
v -0.4 0.4 -5.96046e-008
v -0.4 0.4 -0.3
v -0.3 0.1 0.2
v -0.3 0.1 0.0999999
v -0.3 0.1 -0.4
v -0.3 0.1 -0.5
v -0.3 0.4 0.6
v -0.3 0.4 0.4
v -0.3 0.4 -0.1
v -0.3 0.4 -0.2
v -0.3 0.4 -0.7
v -0.3 0.4 -0.9
v -0.3 0.5 0.6
v -0.3 0.5 0.4
v -0.3 0.5 -0.1
v -0.3 0.5 -0.2
v -0.3 0.5 -0.7
v -0.3 0.5 -0.9
v -0.3 0.6 -0.1
v -0.3 0.6 -0.2
v -0.3 0.7 -0.1
v -0.3 0.7 -0.2
v -0.3 0.8 0.2
v -0.3 0.8 0.0999999
v -0.3 0.8 -0.4
v -0.3 0.8 -0.5
v -0.3 0.9 -0.1
v -0.3 0.9 -0.2
v -0.3 1.1 -5.96046e-008
v -0.3 1.1 -0.1
v -0.3 1.1 -0.2
v -0.3 1.1 -0.3
v -0.3 1.2 0.0999999
v -0.3 1.2 -5.96046e-008
v -0.3 1.2 -0.3
v -0.3 1.2 -0.4
v -0.3 1.3 -5.96046e-008
v -0.3 1.3 -0.3
v -0.3 1.4 0.0999999
v -0.3 1.4 -0.4
v -0.0999999 0.9 -5.96046e-008
v -0.0999999 0.9 -0.3
v -0.0999999 1 -5.96046e-008
v -0.0999999 1 -0.3
v 1.19209e-007 0.1 0.2
v 1.19209e-007 0.1 0.0999999
v 1.19209e-007 0.1 -0.1
v 1.19209e-007 0.1 -0.2
v 1.19209e-007 0.1 -0.4
v 1.19209e-007 0.1 -0.5
v 1.19209e-007 0.8 0.2
v 1.19209e-007 0.8 0.0999999
v 1.19209e-007 0.8 -0.1
v 1.19209e-007 0.8 -0.2
v 1.19209e-007 0.8 -0.4
v 1.19209e-007 0.8 -0.5
v 0.2 0.4 0.4
v 0.2 0.4 0.3
v 0.2 0.4 -0.6
v 0.2 0.4 -0.7
v 0.2 0.5 0.4
v 0.2 0.5 0.3
v 0.2 0.5 -0.6
v 0.2 0.5 -0.7
v 0.3 0.4 0.5
v 0.3 0.4 0.4
v 0.3 0.4 -0.1
v 0.3 0.4 -0.2
v 0.3 0.4 -0.7
v 0.3 0.4 -0.8
v 0.3 0.5 0.5
v 0.3 0.5 0.4
v 0.3 0.5 -0.1
v 0.3 0.5 -0.2
v 0.3 0.5 -0.7
v 0.3 0.5 -0.8
v -0.8 0.4 0.5
v -0.8 0.4 0.4
v -0.8 0.4 -0.1
v -0.8 0.4 -0.2
v -0.8 0.4 -0.7
v -0.8 0.4 -0.8
v -0.8 0.5 0.5
v -0.8 0.5 0.4
v -0.8 0.5 -0.1
v -0.8 0.5 -0.2
v -0.8 0.5 -0.7
v -0.8 0.5 -0.8
v -0.7 0.4 0.4
v -0.7 0.4 0.3
v -0.7 0.4 -0.6
v -0.7 0.4 -0.7
v -0.7 0.5 0.4
v -0.7 0.5 0.3
v -0.7 0.5 -0.6
v -0.7 0.5 -0.7
v -0.5 0.1 0.2
v -0.5 0.1 0.0999999
v -0.5 0.1 -0.1
v -0.5 0.1 -0.2
v -0.5 0.1 -0.4
v -0.5 0.1 -0.5
v -0.5 0.8 0.2
v -0.5 0.8 0.0999999
v -0.5 0.8 -0.1
v -0.5 0.8 -0.2
v -0.5 0.8 -0.4
v -0.5 0.8 -0.5
v -0.4 0.9 -5.96046e-008
v -0.4 0.9 -0.3
v -0.4 1 -5.96046e-008
v -0.4 1 -0.3
v -0.2 0.1 0.2
v -0.2 0.1 0.0999999
v -0.2 0.1 -0.4
v -0.2 0.1 -0.5
v -0.2 0.4 0.6
v -0.2 0.4 0.4
v -0.2 0.4 -0.1
v -0.2 0.4 -0.2
v -0.2 0.4 -0.7
v -0.2 0.4 -0.9
v -0.2 0.5 0.6
v -0.2 0.5 0.4
v -0.2 0.5 -0.1
v -0.2 0.5 -0.2
v -0.2 0.5 -0.7
v -0.2 0.5 -0.9
v -0.2 0.6 -0.1
v -0.2 0.6 -0.2
v -0.2 0.7 -0.1
v -0.2 0.7 -0.2
v -0.2 0.8 0.2
v -0.2 0.8 0.0999999
v -0.2 0.8 -0.4
v -0.2 0.8 -0.5
v -0.2 0.9 -0.1
v -0.2 0.9 -0.2
v -0.2 1.1 -5.96046e-008
v -0.2 1.1 -0.1
v -0.2 1.1 -0.2
v -0.2 1.1 -0.3
v -0.2 1.2 0.0999999
v -0.2 1.2 -5.96046e-008
v -0.2 1.2 -0.3
v -0.2 1.2 -0.4
v -0.2 1.3 -5.96046e-008
v -0.2 1.3 -0.3
v -0.2 1.4 0.0999999
v -0.2 1.4 -0.4
v -0.0999999 0.1 -5.96046e-008
v -0.0999999 0.1 -0.3
v -0.0999999 0.4 -5.96046e-008
v -0.0999999 0.4 -0.3
v 1.19209e-007 0.9 0.0999999
v 1.19209e-007 0.9 -0.4
v 1.19209e-007 1 0.0999999
v 1.19209e-007 1 -0.4
v 0.1 0 0.2
v 0.1 0 -0.5
v 0.1 0.1 0.0999999
v 0.1 0.1 -0.1
v 0.1 0.1 -0.2
v 0.1 0.1 -0.4
v 0.1 0.8 0.0999999
v 0.1 0.8 -0.1
v 0.1 0.8 -0.2
v 0.1 0.8 -0.4
v 0.1 0.9 0.2
v 0.1 0.9 -0.5
v 0.3 0.4 0.4
v 0.3 0.4 0.3
v 0.3 0.4 -0.6
v 0.3 0.4 -0.7
v 0.3 0.5 0.4
v 0.3 0.5 0.3
v 0.3 0.5 -0.6
v 0.3 0.5 -0.7
v 0.4 0.4 0.5
v 0.4 0.4 0.4
v 0.4 0.4 -0.7
v 0.4 0.4 -0.8
v 0.4 0.5 0.5
v 0.4 0.5 0.4
v 0.4 0.5 -0.7
v 0.4 0.5 -0.8
v 0.5 0.4 -0.1
v 0.5 0.4 -0.2
v 0.5 0.5 -0.1
v 0.5 0.5 -0.2
v -0.3 0.4 0.6
v -0.3 0.5 0.6
v -0.2 0.4 0.6
v -0.2 0.5 0.6
v -0.9 0.4 0.5
v -0.9 0.5 0.5
v -0.8 0.4 0.5
v -0.8 0.5 0.5
v 0.3 0.4 0.5
v 0.3 0.5 0.5
v 0.4 0.4 0.5
v 0.4 0.5 0.5
v -0.8 0.4 0.4
v -0.8 0.5 0.4
v -0.7 0.4 0.4
v -0.7 0.5 0.4
v 0.2 0.4 0.4
v 0.2 0.5 0.4
v 0.3 0.4 0.4
v 0.3 0.5 0.4
v -0.6 0 0.2
v -0.6 0.9 0.2
v -0.5 0.1 0.2
v -0.5 0.8 0.2
v -0.3 0.1 0.2
v -0.3 0.8 0.2
v -0.2 0.1 0.2
v -0.2 0.8 0.2
v 1.19209e-007 0.1 0.2
v 1.19209e-007 0.8 0.2
v 0.1 0 0.2
v 0.1 0.9 0.2
v -0.5 0.9 0.0999999
v -0.5 1 0.0999999
v -0.3 1.2 0.0999999
v -0.3 1.4 0.0999999
v -0.2 1.2 0.0999999
v -0.2 1.4 0.0999999
v 1.19209e-007 0.9 0.0999999
v 1.19209e-007 1 0.0999999
v -0.4 0.1 -5.96046e-008
v -0.4 0.4 -5.96046e-008
v -0.3 1.1 -5.96046e-008
v -0.3 1.2 -5.96046e-008
v -0.2 1.1 -5.96046e-008
v -0.2 1.2 -5.96046e-008
v -0.0999999 0.1 -5.96046e-008
v -0.0999999 0.4 -5.96046e-008
v -1 0.4 -0.1
v -1 0.5 -0.1
v -0.8 0.4 -0.1
v -0.8 0.5 -0.1
v -0.6 0.1 -0.1
v -0.6 0.8 -0.1
v -0.5 0.1 -0.1
v -0.5 0.8 -0.1
v -0.3 0.4 -0.1
v -0.3 0.5 -0.1
v -0.3 0.6 -0.1
v -0.3 0.7 -0.1
v -0.3 0.9 -0.1
v -0.3 1.1 -0.1
v -0.2 0.4 -0.1
v -0.2 0.5 -0.1
v -0.2 0.6 -0.1
v -0.2 0.7 -0.1
v -0.2 0.9 -0.1
v -0.2 1.1 -0.1
v 1.19209e-007 0.1 -0.1
v 1.19209e-007 0.8 -0.1
v 0.1 0.1 -0.1
v 0.1 0.8 -0.1
v 0.3 0.4 -0.1
v 0.3 0.5 -0.1
v 0.5 0.4 -0.1
v 0.5 0.5 -0.1
v -0.4 0.9 -0.3
v -0.4 1 -0.3
v -0.3 1.2 -0.3
v -0.3 1.3 -0.3
v -0.2 1.2 -0.3
v -0.2 1.3 -0.3
v -0.0999999 0.9 -0.3
v -0.0999999 1 -0.3
v -0.6 0.1 -0.4
v -0.6 0.8 -0.4
v -0.5 0.1 -0.4
v -0.5 0.8 -0.4
v -0.3 0.1 -0.4
v -0.3 0.8 -0.4
v -0.2 0.1 -0.4
v -0.2 0.8 -0.4
v 1.19209e-007 0.1 -0.4
v 1.19209e-007 0.8 -0.4
v 0.1 0.1 -0.4
v 0.1 0.8 -0.4
v -0.8 0.4 -0.6
v -0.8 0.5 -0.6
v -0.7 0.4 -0.6
v -0.7 0.5 -0.6
v 0.2 0.4 -0.6
v 0.2 0.5 -0.6
v 0.3 0.4 -0.6
v 0.3 0.5 -0.6
v -0.9 0.4 -0.7
v -0.9 0.5 -0.7
v -0.8 0.4 -0.7
v -0.8 0.5 -0.7
v -0.3 0.4 -0.7
v -0.3 0.5 -0.7
v -0.2 0.4 -0.7
v -0.2 0.5 -0.7
v 0.3 0.4 -0.7
v 0.3 0.5 -0.7
v 0.4 0.4 -0.7
v 0.4 0.5 -0.7
v -0.9 0.4 0.4
v -0.9 0.5 0.4
v -0.8 0.4 0.4
v -0.8 0.5 0.4
v -0.3 0.4 0.4
v -0.3 0.5 0.4
v -0.2 0.4 0.4
v -0.2 0.5 0.4
v 0.3 0.4 0.4
v 0.3 0.5 0.4
v 0.4 0.4 0.4
v 0.4 0.5 0.4
v -0.8 0.4 0.3
v -0.8 0.5 0.3
v -0.7 0.4 0.3
v -0.7 0.5 0.3
v 0.2 0.4 0.3
v 0.2 0.5 0.3
v 0.3 0.4 0.3
v 0.3 0.5 0.3
v -0.6 0.1 0.0999999
v -0.6 0.8 0.0999999
v -0.5 0.1 0.0999999
v -0.5 0.8 0.0999999
v -0.3 0.1 0.0999999
v -0.3 0.8 0.0999999
v -0.2 0.1 0.0999999
v -0.2 0.8 0.0999999
v 1.19209e-007 0.1 0.0999999
v 1.19209e-007 0.8 0.0999999
v 0.1 0.1 0.0999999
v 0.1 0.8 0.0999999
v -0.4 0.9 -5.96046e-008
v -0.4 1 -5.96046e-008
v -0.3 1.2 -5.96046e-008
v -0.3 1.3 -5.96046e-008
v -0.2 1.2 -5.96046e-008
v -0.2 1.3 -5.96046e-008
v -0.0999999 0.9 -5.96046e-008
v -0.0999999 1 -5.96046e-008
v -1 0.4 -0.2
v -1 0.5 -0.2
v -0.8 0.4 -0.2
v -0.8 0.5 -0.2
v -0.6 0.1 -0.2
v -0.6 0.8 -0.2
v -0.5 0.1 -0.2
v -0.5 0.8 -0.2
v -0.3 0.4 -0.2
v -0.3 0.5 -0.2
v -0.3 0.6 -0.2
v -0.3 0.7 -0.2
v -0.3 0.9 -0.2
v -0.3 1.1 -0.2
v -0.2 0.4 -0.2
v -0.2 0.5 -0.2
v -0.2 0.6 -0.2
v -0.2 0.7 -0.2
v -0.2 0.9 -0.2
v -0.2 1.1 -0.2
v 1.19209e-007 0.1 -0.2
v 1.19209e-007 0.8 -0.2
v 0.1 0.1 -0.2
v 0.1 0.8 -0.2
v 0.3 0.4 -0.2
v 0.3 0.5 -0.2
v 0.5 0.4 -0.2
v 0.5 0.5 -0.2
v -0.4 0.1 -0.3
v -0.4 0.4 -0.3
v -0.3 1.1 -0.3
v -0.3 1.2 -0.3
v -0.2 1.1 -0.3
v -0.2 1.2 -0.3
v -0.0999999 0.1 -0.3
v -0.0999999 0.4 -0.3
v -0.5 0.9 -0.4
v -0.5 1 -0.4
v -0.3 1.2 -0.4
v -0.3 1.4 -0.4
v -0.2 1.2 -0.4
v -0.2 1.4 -0.4
v 1.19209e-007 0.9 -0.4
v 1.19209e-007 1 -0.4
v -0.6 0 -0.5
v -0.6 0.9 -0.5
v -0.5 0.1 -0.5
v -0.5 0.8 -0.5
v -0.3 0.1 -0.5
v -0.3 0.8 -0.5
v -0.2 0.1 -0.5
v -0.2 0.8 -0.5
v 1.19209e-007 0.1 -0.5
v 1.19209e-007 0.8 -0.5
v 0.1 0 -0.5
v 0.1 0.9 -0.5
v -0.8 0.4 -0.7
v -0.8 0.5 -0.7
v -0.7 0.4 -0.7
v -0.7 0.5 -0.7
v 0.2 0.4 -0.7
v 0.2 0.5 -0.7
v 0.3 0.4 -0.7
v 0.3 0.5 -0.7
v -0.9 0.4 -0.8
v -0.9 0.5 -0.8
v -0.8 0.4 -0.8
v -0.8 0.5 -0.8
v 0.3 0.4 -0.8
v 0.3 0.5 -0.8
v 0.4 0.4 -0.8
v 0.4 0.5 -0.8
v -0.3 0.4 -0.9
v -0.3 0.5 -0.9
v -0.2 0.4 -0.9
v -0.2 0.5 -0.9
v -0.6 0 0.2
v 0.1 0 0.2
v -0.6 0 -0.5
v 0.1 0 -0.5
v -0.3 0.4 0.6
v -0.2 0.4 0.6
v -0.9 0.4 0.5
v -0.8 0.4 0.5
v 0.3 0.4 0.5
v 0.4 0.4 0.5
v -0.9 0.4 0.4
v -0.8 0.4 0.4
v -0.7 0.4 0.4
v -0.3 0.4 0.4
v -0.2 0.4 0.4
v 0.2 0.4 0.4
v 0.3 0.4 0.4
v 0.4 0.4 0.4
v -0.8 0.4 0.3
v -0.7 0.4 0.3
v 0.2 0.4 0.3
v 0.3 0.4 0.3
v -1 0.4 -0.1
v -0.8 0.4 -0.1
v 0.3 0.4 -0.1
v 0.5 0.4 -0.1
v -1 0.4 -0.2
v -0.8 0.4 -0.2
v 0.3 0.4 -0.2
v 0.5 0.4 -0.2
v -0.8 0.4 -0.6
v -0.7 0.4 -0.6
v 0.2 0.4 -0.6
v 0.3 0.4 -0.6
v -0.9 0.4 -0.7
v -0.8 0.4 -0.7
v -0.7 0.4 -0.7
v -0.3 0.4 -0.7
v -0.2 0.4 -0.7
v 0.2 0.4 -0.7
v 0.3 0.4 -0.7
v 0.4 0.4 -0.7
v -0.9 0.4 -0.8
v -0.8 0.4 -0.8
v 0.3 0.4 -0.8
v 0.4 0.4 -0.8
v -0.3 0.4 -0.9
v -0.2 0.4 -0.9
v -0.5 0.8 0.2
v -0.3 0.8 0.2
v -0.2 0.8 0.2
v 1.19209e-007 0.8 0.2
v -0.6 0.8 0.0999999
v -0.5 0.8 0.0999999
v -0.3 0.8 0.0999999
v -0.2 0.8 0.0999999
v 1.19209e-007 0.8 0.0999999
v 0.1 0.8 0.0999999
v -0.6 0.8 -0.1
v -0.5 0.8 -0.1
v 1.19209e-007 0.8 -0.1
v 0.1 0.8 -0.1
v -0.6 0.8 -0.2
v -0.5 0.8 -0.2
v 1.19209e-007 0.8 -0.2
v 0.1 0.8 -0.2
v -0.6 0.8 -0.4
v -0.5 0.8 -0.4
v -0.3 0.8 -0.4
v -0.2 0.8 -0.4
v 1.19209e-007 0.8 -0.4
v 0.1 0.8 -0.4
v -0.5 0.8 -0.5
v -0.3 0.8 -0.5
v -0.2 0.8 -0.5
v 1.19209e-007 0.8 -0.5
v -0.3 1.1 -5.96046e-008
v -0.2 1.1 -5.96046e-008
v -0.3 1.1 -0.1
v -0.2 1.1 -0.1
v -0.3 1.1 -0.2
v -0.2 1.1 -0.2
v -0.3 1.1 -0.3
v -0.2 1.1 -0.3
v -0.3 1.2 0.0999999
v -0.2 1.2 0.0999999
v -0.3 1.2 -5.96046e-008
v -0.2 1.2 -5.96046e-008
v -0.3 1.2 -0.3
v -0.2 1.2 -0.3
v -0.3 1.2 -0.4
v -0.2 1.2 -0.4
v -0.3 1.3 -5.96046e-008
v -0.2 1.3 -5.96046e-008
v -0.3 1.3 -0.3
v -0.2 1.3 -0.3
v -0.5 0.1 0.2
v -0.3 0.1 0.2
v -0.2 0.1 0.2
v 1.19209e-007 0.1 0.2
v -0.6 0.1 0.0999999
v -0.5 0.1 0.0999999
v -0.3 0.1 0.0999999
v -0.2 0.1 0.0999999
v 1.19209e-007 0.1 0.0999999
v 0.1 0.1 0.0999999
v -0.4 0.1 -5.96046e-008
v -0.0999999 0.1 -5.96046e-008
v -0.6 0.1 -0.1
v -0.5 0.1 -0.1
v 1.19209e-007 0.1 -0.1
v 0.1 0.1 -0.1
v -0.6 0.1 -0.2
v -0.5 0.1 -0.2
v 1.19209e-007 0.1 -0.2
v 0.1 0.1 -0.2
v -0.4 0.1 -0.3
v -0.0999999 0.1 -0.3
v -0.6 0.1 -0.4
v -0.5 0.1 -0.4
v -0.3 0.1 -0.4
v -0.2 0.1 -0.4
v 1.19209e-007 0.1 -0.4
v 0.1 0.1 -0.4
v -0.5 0.1 -0.5
v -0.3 0.1 -0.5
v -0.2 0.1 -0.5
v 1.19209e-007 0.1 -0.5
v -0.4 0.4 -5.96046e-008
v -0.0999999 0.4 -5.96046e-008
v -0.3 0.4 -0.1
v -0.2 0.4 -0.1
v -0.3 0.4 -0.2
v -0.2 0.4 -0.2
v -0.4 0.4 -0.3
v -0.0999999 0.4 -0.3
v -0.3 0.5 0.6
v -0.2 0.5 0.6
v -0.9 0.5 0.5
v -0.8 0.5 0.5
v 0.3 0.5 0.5
v 0.4 0.5 0.5
v -0.9 0.5 0.4
v -0.8 0.5 0.4
v -0.7 0.5 0.4
v -0.3 0.5 0.4
v -0.2 0.5 0.4
v 0.2 0.5 0.4
v 0.3 0.5 0.4
v 0.4 0.5 0.4
v -0.8 0.5 0.3
v -0.7 0.5 0.3
v 0.2 0.5 0.3
v 0.3 0.5 0.3
v -1 0.5 -0.1
v -0.8 0.5 -0.1
v 0.3 0.5 -0.1
v 0.5 0.5 -0.1
v -1 0.5 -0.2
v -0.8 0.5 -0.2
v 0.3 0.5 -0.2
v 0.5 0.5 -0.2
v -0.8 0.5 -0.6
v -0.7 0.5 -0.6
v 0.2 0.5 -0.6
v 0.3 0.5 -0.6
v -0.9 0.5 -0.7
v -0.8 0.5 -0.7
v -0.7 0.5 -0.7
v -0.3 0.5 -0.7
v -0.2 0.5 -0.7
v 0.2 0.5 -0.7
v 0.3 0.5 -0.7
v 0.4 0.5 -0.7
v -0.9 0.5 -0.8
v -0.8 0.5 -0.8
v 0.3 0.5 -0.8
v 0.4 0.5 -0.8
v -0.3 0.5 -0.9
v -0.2 0.5 -0.9
v -0.3 0.7 -0.1
v -0.2 0.7 -0.1
v -0.3 0.7 -0.2
v -0.2 0.7 -0.2
v -0.6 0.9 0.2
v 0.1 0.9 0.2
v -0.5 0.9 0.0999999
v 1.19209e-007 0.9 0.0999999
v -0.4 0.9 -5.96046e-008
v -0.0999999 0.9 -5.96046e-008
v -0.3 0.9 -0.1
v -0.2 0.9 -0.1
v -0.3 0.9 -0.2
v -0.2 0.9 -0.2
v -0.4 0.9 -0.3
v -0.0999999 0.9 -0.3
v -0.5 0.9 -0.4
v 1.19209e-007 0.9 -0.4
v -0.6 0.9 -0.5
v 0.1 0.9 -0.5
v -0.5 1 0.0999999
v 1.19209e-007 1 0.0999999
v -0.4 1 -5.96046e-008
v -0.0999999 1 -5.96046e-008
v -0.4 1 -0.3
v -0.0999999 1 -0.3
v -0.5 1 -0.4
v 1.19209e-007 1 -0.4
v -0.3 1.2 -5.96046e-008
v -0.2 1.2 -5.96046e-008
v -0.3 1.2 -0.3
v -0.2 1.2 -0.3
v -0.3 1.4 0.0999999
v -0.2 1.4 0.0999999
v -0.3 1.4 -0.4
v -0.2 1.4 -0.4

# faces
f 3/1/1 2/1/1 1/1/1
f 4/1/1 2/1/1 3/1/1
f 9/1/1 6/1/1 5/1/1
f 10/1/1 6/1/1 9/1/1
f 11/1/1 8/1/1 7/1/1
f 12/1/1 8/1/1 11/1/1
f 17/1/1 14/1/1 13/1/1
f 18/1/1 14/1/1 17/1/1
f 19/1/1 16/1/1 15/1/1
f 20/1/1 16/1/1 19/1/1
f 23/3/1 22/3/1 21/3/1
f 24/3/1 22/3/1 23/3/1
f 25/3/1 22/3/1 24/3/1
f 26/3/1 22/3/1 25/3/1
f 27/3/1 23/3/1 21/3/1
f 28/3/1 25/3/1 24/3/1
f 29/3/1 25/3/1 28/3/1
f 30/3/1 22/3/1 26/3/1
f 31/3/1 29/3/1 28/3/1
f 31/3/1 30/3/1 29/3/1
f 31/3/1 27/3/1 21/3/1
f 31/3/1 28/3/1 27/3/1
f 32/3/1 22/3/1 30/3/1
f 32/3/1 30/3/1 31/3/1
f 35/3/1 34/3/1 33/3/1
f 36/3/1 34/3/1 35/3/1
f 39/4/1 38/4/1 37/4/1
f 40/4/1 38/4/1 39/4/1
f 51/1/1 46/1/1 45/1/1
f 52/1/1 46/1/1 51/1/1
f 53/5/1 48/5/1 47/5/1
f 54/5/1 48/5/1 53/5/1
f 55/1/1 50/1/1 49/1/1
f 56/1/1 50/1/1 55/1/1
f 57/1/1 54/1/1 53/1/1
f 58/1/1 54/1/1 57/1/1
f 59/2/1 58/2/1 57/2/1
f 60/2/1 58/2/1 59/2/1
f 61/3/1 42/3/1 41/3/1
f 62/3/1 42/3/1 61/3/1
f 63/3/1 44/3/1 43/3/1
f 64/3/1 44/3/1 63/3/1
f 68/3/1 66/3/1 65/3/1
f 69/3/1 66/3/1 68/3/1
f 72/3/1 68/3/1 67/3/1
f 72/3/1 70/3/1 69/3/1
f 72/3/1 69/3/1 68/3/1
f 73/3/1 70/3/1 72/3/1
f 75/3/1 72/3/1 71/3/1
f 76/3/1 74/3/1 73/3/1
f 77/3/1 75/3/1 71/3/1
f 77/3/1 76/3/1 75/3/1
f 78/3/1 74/3/1 76/3/1
f 78/3/1 76/3/1 77/3/1
f 81/3/1 80/3/1 79/3/1
f 82/3/1 80/3/1 81/3/1
f 89/3/1 84/3/1 83/3/1
f 90/3/1 84/3/1 89/3/1
f 91/3/1 86/3/1 85/3/1
f 92/3/1 86/3/1 91/3/1
f 93/3/1 88/3/1 87/3/1
f 94/3/1 88/3/1 93/3/1
f 99/1/1 96/1/1 95/1/1
f 100/1/1 96/1/1 99/1/1
f 101/1/1 98/1/1 97/1/1
f 102/1/1 98/1/1 101/1/1
f 109/1/1 104/1/1 103/1/1
f 110/1/1 104/1/1 109/1/1
f 111/1/1 106/1/1 105/1/1
f 112/1/1 106/1/1 111/1/1
f 113/1/1 108/1/1 107/1/1
f 114/1/1 108/1/1 113/1/1
f 115/1/2 116/1/2 121/1/2
f 121/1/2 116/1/2 122/1/2
f 117/1/2 118/1/2 123/1/2
f 123/1/2 118/1/2 124/1/2
f 119/1/2 120/1/2 125/1/2
f 125/1/2 120/1/2 126/1/2
f 127/1/2 128/1/2 131/1/2
f 131/1/2 128/1/2 132/1/2
f 129/1/2 130/1/2 133/1/2
f 133/1/2 130/1/2 134/1/2
f 135/3/2 136/3/2 141/3/2
f 141/3/2 136/3/2 142/3/2
f 137/3/2 138/3/2 143/3/2
f 143/3/2 138/3/2 144/3/2
f 139/3/2 140/3/2 145/3/2
f 145/3/2 140/3/2 146/3/2
f 147/3/2 148/3/2 149/3/2
f 149/3/2 148/3/2 150/3/2
f 155/1/2 156/1/2 161/1/2
f 161/1/2 156/1/2 162/1/2
f 157/5/2 158/5/2 163/5/2
f 163/5/2 158/5/2 164/5/2
f 159/1/2 160/1/2 165/1/2
f 165/1/2 160/1/2 166/1/2
f 163/1/2 164/1/2 167/1/2
f 167/1/2 164/1/2 168/1/2
f 167/2/2 168/2/2 169/2/2
f 169/2/2 168/2/2 170/2/2
f 151/3/2 152/3/2 171/3/2
f 171/3/2 152/3/2 172/3/2
f 153/3/2 154/3/2 173/3/2
f 173/3/2 154/3/2 174/3/2
f 175/3/2 176/3/2 178/3/2
f 178/3/2 176/3/2 179/3/2
f 177/3/2 178/3/2 182/3/2
f 179/3/2 180/3/2 182/3/2
f 178/3/2 179/3/2 182/3/2
f 182/3/2 180/3/2 183/3/2
f 181/3/2 182/3/2 185/3/2
f 183/3/2 184/3/2 186/3/2
f 181/3/2 185/3/2 187/3/2
f 185/3/2 186/3/2 187/3/2
f 186/3/2 184/3/2 188/3/2
f 187/3/2 186/3/2 188/3/2
f 189/4/2 190/4/2 191/4/2
f 191/4/2 190/4/2 192/4/2
f 193/3/2 194/3/2 195/3/2
f 195/3/2 194/3/2 196/3/2
f 197/3/2 198/3/2 199/3/2
f 199/3/2 198/3/2 200/3/2
f 200/3/2 198/3/2 201/3/2
f 201/3/2 198/3/2 202/3/2
f 197/3/2 199/3/2 203/3/2
f 200/3/2 201/3/2 204/3/2
f 204/3/2 201/3/2 205/3/2
f 202/3/2 198/3/2 206/3/2
f 204/3/2 205/3/2 207/3/2
f 205/3/2 206/3/2 207/3/2
f 197/3/2 203/3/2 207/3/2
f 203/3/2 204/3/2 207/3/2
f 206/3/2 198/3/2 208/3/2
f 207/3/2 206/3/2 208/3/2
f 209/1/2 210/1/2 213/1/2
f 213/1/2 210/1/2 214/1/2
f 211/1/2 212/1/2 215/1/2
f 215/1/2 212/1/2 216/1/2
f 217/1/2 218/1/2 221/1/2
f 221/1/2 218/1/2 222/1/2
f 219/1/2 220/1/2 223/1/2
f 223/1/2 220/1/2 224/1/2
f 225/1/2 226/1/2 227/1/2
f 227/1/2 226/1/2 228/1/2
f 231/1/3 230/1/3 229/1/3
f 232/1/3 230/1/3 231/1/3
f 235/1/3 234/1/3 233/1/3
f 236/1/3 234/1/3 235/1/3
f 239/1/3 238/1/3 237/1/3
f 240/1/3 238/1/3 239/1/3
f 243/1/3 242/1/3 241/1/3
f 244/1/3 242/1/3 243/1/3
f 247/1/3 246/1/3 245/1/3
f 248/1/3 246/1/3 247/1/3
f 251/3/3 250/3/3 249/3/3
f 252/3/3 250/3/3 251/3/3
f 253/3/3 251/3/3 249/3/3
f 254/3/3 250/3/3 252/3/3
f 255/3/3 253/3/3 249/3/3
f 255/3/3 254/3/3 253/3/3
f 256/3/3 250/3/3 254/3/3
f 256/3/3 254/3/3 255/3/3
f 257/3/3 255/3/3 249/3/3
f 258/3/3 250/3/3 256/3/3
f 259/3/3 257/3/3 249/3/3
f 259/3/3 258/3/3 257/3/3
f 260/3/3 250/3/3 258/3/3
f 260/3/3 258/3/3 259/3/3
f 265/3/3 264/3/3 263/3/3
f 266/3/3 264/3/3 265/3/3
f 267/3/3 262/3/3 261/3/3
f 268/3/3 262/3/3 267/3/3
f 273/3/3 272/3/3 271/3/3
f 274/3/3 272/3/3 273/3/3
f 275/4/3 270/4/3 269/4/3
f 276/4/3 270/4/3 275/4/3
f 279/1/3 278/1/3 277/1/3
f 280/1/3 278/1/3 279/1/3
f 283/3/3 282/3/3 281/3/3
f 284/3/3 282/3/3 283/3/3
f 291/5/3 286/5/3 285/5/3
f 292/1/3 287/1/3 286/1/3
f 292/5/3 286/5/3 291/5/3
f 293/2/3 288/2/3 287/2/3
f 293/1/3 287/1/3 292/1/3
f 294/2/3 288/2/3 293/2/3
f 295/3/3 290/3/3 289/3/3
f 296/3/3 290/3/3 295/3/3
f 299/3/3 298/3/3 297/3/3
f 300/3/3 298/3/3 299/3/3
f 303/1/3 302/1/3 301/1/3
f 304/1/3 302/1/3 303/1/3
f 309/3/3 308/3/3 307/3/3
f 310/3/3 308/3/3 309/3/3
f 311/3/3 306/3/3 305/3/3
f 312/3/3 306/3/3 311/3/3
f 315/3/3 314/3/3 313/3/3
f 316/3/3 314/3/3 315/3/3
f 319/3/3 318/3/3 317/3/3
f 320/3/3 318/3/3 319/3/3
f 323/3/3 322/3/3 321/3/3
f 324/3/3 322/3/3 323/3/3
f 327/1/3 326/1/3 325/1/3
f 328/1/3 326/1/3 327/1/3
f 331/1/3 330/1/3 329/1/3
f 332/1/3 330/1/3 331/1/3
f 335/1/3 334/1/3 333/1/3
f 336/1/3 334/1/3 335/1/3
f 339/1/3 338/1/3 337/1/3
f 340/1/3 338/1/3 339/1/3
f 343/1/3 342/1/3 341/1/3
f 344/1/3 342/1/3 343/1/3
f 345/1/4 346/1/4 347/1/4
f 347/1/4 346/1/4 348/1/4
f 349/1/4 350/1/4 351/1/4
f 351/1/4 350/1/4 352/1/4
f 353/1/4 354/1/4 355/1/4
f 355/1/4 354/1/4 356/1/4
f 357/1/4 358/1/4 359/1/4
f 359/1/4 358/1/4 360/1/4
f 361/1/4 362/1/4 363/1/4
f 363/1/4 362/1/4 364/1/4
f 365/3/4 366/3/4 367/3/4
f 367/3/4 366/3/4 368/3/4
f 369/3/4 370/3/4 371/3/4
f 371/3/4 370/3/4 372/3/4
f 373/3/4 374/3/4 375/3/4
f 375/3/4 374/3/4 376/3/4
f 379/3/4 380/3/4 381/3/4
f 381/3/4 380/3/4 382/3/4
f 377/3/4 378/3/4 383/3/4
f 383/3/4 378/3/4 384/3/4
f 385/1/4 386/1/4 387/1/4
f 387/1/4 386/1/4 388/1/4
f 389/3/4 390/3/4 391/3/4
f 391/3/4 390/3/4 392/3/4
f 393/5/4 394/5/4 399/5/4
f 394/1/4 395/1/4 400/1/4
f 399/5/4 394/5/4 400/5/4
f 395/2/4 396/2/4 401/2/4
f 400/1/4 395/1/4 401/1/4
f 401/2/4 396/2/4 402/2/4
f 397/3/4 398/3/4 403/3/4
f 403/3/4 398/3/4 404/3/4
f 405/3/4 406/3/4 407/3/4
f 407/3/4 406/3/4 408/3/4
f 409/1/4 410/1/4 411/1/4
f 411/1/4 410/1/4 412/1/4
f 415/3/4 416/3/4 417/3/4
f 417/3/4 416/3/4 418/3/4
f 413/4/4 414/4/4 419/4/4
f 419/4/4 414/4/4 420/4/4
f 423/3/4 424/3/4 425/3/4
f 425/3/4 424/3/4 426/3/4
f 421/3/4 422/3/4 427/3/4
f 427/3/4 422/3/4 428/3/4
f 429/3/4 430/3/4 431/3/4
f 431/3/4 430/3/4 432/3/4
f 429/3/4 431/3/4 433/3/4
f 432/3/4 430/3/4 434/3/4
f 429/3/4 433/3/4 435/3/4
f 433/3/4 434/3/4 435/3/4
f 434/3/4 430/3/4 436/3/4
f 435/3/4 434/3/4 436/3/4
f 429/3/4 435/3/4 437/3/4
f 436/3/4 430/3/4 438/3/4
f 429/3/4 437/3/4 439/3/4
f 437/3/4 438/3/4 439/3/4
f 438/3/4 430/3/4 440/3/4
f 439/3/4 438/3/4 440/3/4
f 441/1/4 442/1/4 443/1/4
f 443/1/4 442/1/4 444/1/4
f 445/1/4 446/1/4 447/1/4
f 447/1/4 446/1/4 448/1/4
f 449/1/4 450/1/4 451/1/4
f 451/1/4 450/1/4 452/1/4
f 453/1/4 454/1/4 455/1/4
f 455/1/4 454/1/4 456/1/4
f 457/1/4 458/1/4 459/1/4
f 459/1/4 458/1/4 460/1/4
f 463/3/5 462/3/5 461/3/5
f 464/3/5 462/3/5 463/3/5
f 471/1/5 468/1/5 467/1/5
f 472/1/5 468/1/5 471/1/5
f 474/1/5 466/1/5 465/1/5
f 475/1/5 466/1/5 474/1/5
f 477/1/5 470/1/5 469/1/5
f 478/1/5 470/1/5 477/1/5
f 479/1/5 473/1/5 472/1/5
f 480/1/5 473/1/5 479/1/5
f 481/1/5 477/1/5 476/1/5
f 482/1/5 477/1/5 481/1/5
f 487/1/5 484/1/5 483/1/5
f 488/1/5 484/1/5 487/1/5
f 489/1/5 486/1/5 485/1/5
f 490/1/5 486/1/5 489/1/5
f 496/1/5 492/1/5 491/1/5
f 497/1/5 492/1/5 496/1/5
f 500/1/5 494/1/5 493/1/5
f 501/1/5 494/1/5 500/1/5
f 503/1/5 496/1/5 495/1/5
f 504/1/5 496/1/5 503/1/5
f 505/1/5 502/1/5 501/1/5
f 506/1/5 502/1/5 505/1/5
f 507/1/5 499/1/5 498/1/5
f 508/1/5 499/1/5 507/1/5
f 514/3/5 510/3/5 509/3/5
f 515/3/5 510/3/5 514/3/5
f 516/3/5 512/3/5 511/3/5
f 517/3/5 512/3/5 516/3/5
f 519/3/5 515/3/5 514/3/5
f 519/3/5 518/3/5 517/3/5
f 519/3/5 517/3/5 516/3/5
f 519/3/5 516/3/5 515/3/5
f 519/3/5 514/3/5 513/3/5
f 520/3/5 518/3/5 519/3/5
f 521/3/5 518/3/5 520/3/5
f 522/3/5 518/3/5 521/3/5
f 524/3/5 521/3/5 520/3/5
f 525/3/5 521/3/5 524/3/5
f 527/3/5 524/3/5 523/3/5
f 527/3/5 526/3/5 525/3/5
f 527/3/5 525/3/5 524/3/5
f 528/3/5 526/3/5 527/3/5
f 529/3/5 526/3/5 528/3/5
f 530/3/5 526/3/5 529/3/5
f 531/3/5 526/3/5 530/3/5
f 532/3/5 526/3/5 531/3/5
f 533/3/5 529/3/5 528/3/5
f 534/3/5 529/3/5 533/3/5
f 535/3/5 531/3/5 530/3/5
f 536/3/5 531/3/5 535/3/5
f 539/3/5 538/3/5 537/3/5
f 540/3/5 538/3/5 539/3/5
f 543/3/5 542/3/5 541/3/5
f 544/3/5 542/3/5 543/3/5
f 547/3/5 546/3/5 545/3/5
f 548/3/5 546/3/5 547/3/5
f 551/3/5 550/3/5 549/3/5
f 552/3/5 550/3/5 551/3/5
f 555/3/5 554/3/5 553/3/5
f 556/3/5 554/3/5 555/3/5
f 557/3/6 558/3/6 562/3/6
f 562/3/6 558/3/6 563/3/6
f 559/3/6 560/3/6 564/3/6
f 564/3/6 560/3/6 565/3/6
f 562/3/6 563/3/6 567/3/6
f 565/3/6 566/3/6 567/3/6
f 564/3/6 565/3/6 567/3/6
f 563/3/6 564/3/6 567/3/6
f 561/3/6 562/3/6 567/3/6
f 567/3/6 566/3/6 568/3/6
f 561/3/6 567/3/6 569/3/6
f 569/3/6 567/3/6 570/3/6
f 568/3/6 566/3/6 571/3/6
f 571/3/6 566/3/6 572/3/6
f 570/3/6 567/3/6 574/3/6
f 568/3/6 571/3/6 575/3/6
f 573/3/6 574/3/6 577/3/6
f 574/3/6 567/3/6 577/3/6
f 575/3/6 576/3/6 578/3/6
f 568/3/6 575/3/6 578/3/6
f 573/3/6 577/3/6 579/3/6
f 577/3/6 578/3/6 579/3/6
f 579/3/6 578/3/6 580/3/6
f 580/3/6 578/3/6 581/3/6
f 581/3/6 578/3/6 582/3/6
f 578/3/6 576/3/6 583/3/6
f 582/3/6 578/3/6 583/3/6
f 583/3/6 576/3/6 584/3/6
f 580/3/6 581/3/6 585/3/6
f 585/3/6 581/3/6 586/3/6
f 582/3/6 583/3/6 587/3/6
f 587/3/6 583/3/6 588/3/6
f 589/4/6 590/4/6 591/4/6
f 591/4/6 590/4/6 592/4/6
f 589/4/6 591/4/6 593/4/6
f 592/4/6 590/4/6 594/4/6
f 589/4/6 593/4/6 595/4/6
f 593/4/6 594/4/6 595/4/6
f 594/4/6 590/4/6 596/4/6
f 595/4/6 594/4/6 596/4/6
f 599/1/6 600/1/6 603/1/6
f 603/1/6 600/1/6 604/1/6
f 597/1/6 598/1/6 606/1/6
f 606/1/6 598/1/6 607/1/6
f 601/1/6 602/1/6 609/1/6
f 609/1/6 602/1/6 610/1/6
f 604/1/6 605/1/6 611/1/6
f 611/1/6 605/1/6 612/1/6
f 608/1/6 609/1/6 613/1/6
f 613/1/6 609/1/6 614/1/6
f 615/1/6 616/1/6 619/1/6
f 619/1/6 616/1/6 620/1/6
f 617/1/6 618/1/6 621/1/6
f 621/1/6 618/1/6 622/1/6
f 623/1/6 624/1/6 628/1/6
f 628/1/6 624/1/6 629/1/6
f 625/1/6 626/1/6 632/1/6
f 632/1/6 626/1/6 633/1/6
f 627/1/6 628/1/6 635/1/6
f 635/1/6 628/1/6 636/1/6
f 633/1/6 634/1/6 637/1/6
f 637/1/6 634/1/6 638/1/6
f 630/1/6 631/1/6 639/1/6
f 639/1/6 631/1/6 640/1/6
f 641/2/6 642/2/6 643/2/6
f 643/2/6 642/2/6 644/2/6
f 645/3/6 646/3/6 647/3/6
f 647/3/6 646/3/6 648/3/6
f 649/3/6 650/3/6 651/3/6
f 651/3/6 650/3/6 652/3/6
f 649/3/6 651/3/6 653/3/6
f 652/3/6 650/3/6 654/3/6
f 649/3/6 653/3/6 655/3/6
f 653/3/6 654/3/6 655/3/6
f 654/3/6 650/3/6 656/3/6
f 655/3/6 654/3/6 656/3/6
f 645/3/6 647/3/6 657/3/6
f 648/3/6 646/3/6 658/3/6
f 645/3/6 657/3/6 659/3/6
f 657/3/6 658/3/6 659/3/6
f 658/3/6 646/3/6 660/3/6
f 659/3/6 658/3/6 660/3/6
f 661/3/6 662/3/6 663/3/6
f 663/3/6 662/3/6 664/3/6
f 661/3/6 663/3/6 665/3/6
f 664/3/6 662/3/6 666/3/6
f 661/3/6 665/3/6 667/3/6
f 665/3/6 666/3/6 667/3/6
f 666/3/6 662/3/6 668/3/6
f 667/3/6 666/3/6 668/3/6
f 669/3/6 670/3/6 671/3/6
f 671/3/6 670/3/6 672/3/6
f 673/3/6 674/3/6 675/3/6
f 675/3/6 674/3/6 676/3/6
