# MagicaVoxel @ Ephtracy

# group
o 

# material
mtllib ChestObject.mtl
usemtl palette

# normals
vn -1 0 0
vn 1 0 0
vn 0 0 1
vn 0 0 -1
vn 0 -1 0
vn 0 1 0

# texcoords
vt 0.208984 0.5
vt 0.857422 0.5
vt 0.994141 0.5

# verts
v -0.9 0.7 0.1
v -0.9 0.7 -0.1
v -0.9 1 0.1
v -0.9 1 -0.1
v -0.8 0 0.8
v -0.8 0 -0.8
v -0.8 0.1 0.6
v -0.8 0.1 0.1
v -0.8 0.1 -0.1
v -0.8 0.1 -0.6
v -0.8 0.6 0.1
v -0.8 0.6 -0.1
v -0.8 0.7 0.6
v -0.8 0.7 0.1
v -0.8 0.7 -0.1
v -0.8 0.7 -0.6
v -0.8 0.8 0.8
v -0.8 0.8 0.1
v -0.8 0.8 -0.1
v -0.8 0.8 -0.8
v -0.8 0.9 0.8
v -0.8 0.9 0.1
v -0.8 0.9 -0.1
v -0.8 0.9 -0.8
v -0.8 1 0.6
v -0.8 1 0.1
v -0.8 1 -0.1
v -0.8 1 -0.6
v -0.8 1.2 0.8
v -0.8 1.2 0.6
v -0.8 1.2 0.1
v -0.8 1.2 -0.1
v -0.8 1.2 -0.6
v -0.8 1.2 -0.8
v -0.7 0.1 0.6
v -0.7 0.1 0.1
v -0.7 0.1 -0.1
v -0.7 0.1 -0.6
v -0.7 0.6 0.1
v -0.7 0.6 -0.1
v -0.7 0.7 0.6
v -0.7 0.7 0.1
v -0.7 0.7 -0.1
v -0.7 0.7 -0.6
v -0.7 1 0.6
v -0.7 1 0.1
v -0.7 1 -0.1
v -0.7 1 -0.6
v -0.7 1.2 0.8
v -0.7 1.2 0.6
v -0.7 1.2 0.1
v -0.7 1.2 -0.1
v -0.7 1.2 -0.6
v -0.7 1.2 -0.8
v -0.7 1.4 0.8
v -0.7 1.4 0.6
v -0.7 1.4 0.1
v -0.7 1.4 -0.1
v -0.7 1.4 -0.6
v -0.7 1.4 -0.8
v -0.6 1.2 0.6
v -0.6 1.2 0.1
v -0.6 1.2 -0.1
v -0.6 1.2 -0.6
v -0.6 1.4 0.8
v -0.6 1.4 0.6
v -0.6 1.4 0.1
v -0.6 1.4 -0.1
v -0.6 1.4 -0.6
v -0.6 1.4 -0.8
v -0.6 1.5 0.8
v -0.6 1.5 0.6
v -0.6 1.5 0.1
v -0.6 1.5 -0.1
v -0.6 1.5 -0.6
v -0.6 1.5 -0.8
v -0.4 1.4 0.6
v -0.4 1.4 0.1
v -0.4 1.4 -0.1
v -0.4 1.4 -0.6
v -0.4 1.5 0.8
v -0.4 1.5 0.6
v -0.4 1.5 0.1
v -0.4 1.5 -0.1
v -0.4 1.5 -0.6
v -0.4 1.5 -0.8
v -0.4 1.6 0.8
v -0.4 1.6 0.6
v -0.4 1.6 0.1
v -0.4 1.6 -0.1
v -0.4 1.6 -0.6
v -0.4 1.6 -0.8
v 0.4 1.3 0.8
v 0.4 1.3 0.7
v 0.4 1.3 -0.7
v 0.4 1.3 -0.8
v 0.4 1.4 0.8
v 0.4 1.4 0.7
v 0.4 1.4 -0.7
v 0.4 1.4 -0.8
v 0.5 1.2 0.8
v 0.5 1.2 0.7
v 0.5 1.2 -0.7
v 0.5 1.2 -0.8
v 0.5 1.3 0.8
v 0.5 1.3 0.7
v 0.5 1.3 -0.7
v 0.5 1.3 -0.8
v 0.6 0.1 0.8
v 0.6 0.1 0.7
v 0.6 0.1 -0.7
v 0.6 0.1 -0.8
v 0.6 0.7 0.8
v 0.6 0.7 0.7
v 0.6 0.7 -0.7
v 0.6 0.7 -0.8
v 0.6 1 0.8
v 0.6 1 0.7
v 0.6 1 -0.7
v 0.6 1 -0.8
v 0.6 1.2 0.8
v 0.6 1.2 0.7
v 0.6 1.2 -0.7
v 0.6 1.2 -0.8
v -0.6 0.1 0.8
v -0.6 0.1 0.7
v -0.6 0.1 -0.7
v -0.6 0.1 -0.8
v -0.6 0.7 0.8
v -0.6 0.7 0.7
v -0.6 0.7 -0.7
v -0.6 0.7 -0.8
v -0.6 1 0.8
v -0.6 1 0.7
v -0.6 1 -0.7
v -0.6 1 -0.8
v -0.6 1.2 0.8
v -0.6 1.2 0.7
v -0.6 1.2 -0.7
v -0.6 1.2 -0.8
v -0.5 1.2 0.8
v -0.5 1.2 0.7
v -0.5 1.2 -0.7
v -0.5 1.2 -0.8
v -0.5 1.3 0.8
v -0.5 1.3 0.7
v -0.5 1.3 -0.7
v -0.5 1.3 -0.8
v -0.4 1.3 0.8
v -0.4 1.3 0.7
v -0.4 1.3 -0.7
v -0.4 1.3 -0.8
v -0.4 1.4 0.8
v -0.4 1.4 0.7
v -0.4 1.4 -0.7
v -0.4 1.4 -0.8
v 0.4 1.4 0.6
v 0.4 1.4 0.1
v 0.4 1.4 -0.1
v 0.4 1.4 -0.6
v 0.4 1.5 0.8
v 0.4 1.5 0.6
v 0.4 1.5 0.1
v 0.4 1.5 -0.1
v 0.4 1.5 -0.6
v 0.4 1.5 -0.8
v 0.4 1.6 0.8
v 0.4 1.6 0.6
v 0.4 1.6 0.1
v 0.4 1.6 -0.1
v 0.4 1.6 -0.6
v 0.4 1.6 -0.8
v 0.6 1.2 0.6
v 0.6 1.2 0.1
v 0.6 1.2 -0.1
v 0.6 1.2 -0.6
v 0.6 1.4 0.8
v 0.6 1.4 0.6
v 0.6 1.4 0.1
v 0.6 1.4 -0.1
v 0.6 1.4 -0.6
v 0.6 1.4 -0.8
v 0.6 1.5 0.8
v 0.6 1.5 0.6
v 0.6 1.5 0.1
v 0.6 1.5 -0.1
v 0.6 1.5 -0.6
v 0.6 1.5 -0.8
v 0.7 0.1 0.6
v 0.7 0.1 0.1
v 0.7 0.1 -0.1
v 0.7 0.1 -0.6
v 0.7 0.7 0.6
v 0.7 0.7 0.1
v 0.7 0.7 -0.1
v 0.7 0.7 -0.6
v 0.7 1 0.6
v 0.7 1 0.1
v 0.7 1 -0.1
v 0.7 1 -0.6
v 0.7 1.2 0.8
v 0.7 1.2 0.6
v 0.7 1.2 0.1
v 0.7 1.2 -0.1
v 0.7 1.2 -0.6
v 0.7 1.2 -0.8
v 0.7 1.4 0.8
v 0.7 1.4 0.6
v 0.7 1.4 0.1
v 0.7 1.4 -0.1
v 0.7 1.4 -0.6
v 0.7 1.4 -0.8
v 0.8 0 0.8
v 0.8 0 -0.8
v 0.8 0.1 0.6
v 0.8 0.1 0.1
v 0.8 0.1 -0.1
v 0.8 0.1 -0.6
v 0.8 0.7 0.6
v 0.8 0.7 0.1
v 0.8 0.7 -0.1
v 0.8 0.7 -0.6
v 0.8 0.8 0.7
v 0.8 0.8 0.6
v 0.8 0.8 0.5
v 0.8 0.8 -0.5
v 0.8 0.8 -0.6
v 0.8 0.8 -0.7
v 0.8 0.9 0.7
v 0.8 0.9 0.6
v 0.8 0.9 0.5
v 0.8 0.9 -0.5
v 0.8 0.9 -0.6
v 0.8 0.9 -0.7
v 0.8 1 0.6
v 0.8 1 0.1
v 0.8 1 -0.1
v 0.8 1 -0.6
v 0.8 1.2 0.8
v 0.8 1.2 0.6
v 0.8 1.2 0.1
v 0.8 1.2 -0.1
v 0.8 1.2 -0.6
v 0.8 1.2 -0.8
v -0.8 0 0.8
v -0.8 0.8 0.8
v -0.8 0.9 0.8
v -0.8 1.2 0.8
v -0.7 1.2 0.8
v -0.7 1.4 0.8
v -0.6 0.1 0.8
v -0.6 0.7 0.8
v -0.6 1 0.8
v -0.6 1.2 0.8
v -0.6 1.4 0.8
v -0.6 1.5 0.8
v -0.5 1.2 0.8
v -0.5 1.3 0.8
v -0.4 1.3 0.8
v -0.4 1.4 0.8
v -0.4 1.5 0.8
v -0.4 1.6 0.8
v 0.4 1.3 0.8
v 0.4 1.4 0.8
v 0.4 1.5 0.8
v 0.4 1.6 0.8
v 0.5 1.2 0.8
v 0.5 1.3 0.8
v 0.6 0.1 0.8
v 0.6 0.7 0.8
v 0.6 1 0.8
v 0.6 1.2 0.8
v 0.6 1.4 0.8
v 0.6 1.5 0.8
v 0.7 0.8 0.8
v 0.7 0.9 0.8
v 0.7 1.2 0.8
v 0.7 1.4 0.8
v 0.8 0 0.8
v 0.8 1.2 0.8
v -0.6 0.1 0.7
v -0.6 0.7 0.7
v -0.6 1 0.7
v -0.6 1.2 0.7
v -0.5 1.2 0.7
v -0.5 1.3 0.7
v -0.4 1.3 0.7
v -0.4 1.4 0.7
v 0.4 1.3 0.7
v 0.4 1.4 0.7
v 0.5 1.2 0.7
v 0.5 1.3 0.7
v 0.6 0.1 0.7
v 0.6 0.7 0.7
v 0.6 1 0.7
v 0.6 1.2 0.7
v -0.9 0.7 0.1
v -0.9 1 0.1
v -0.8 0.1 0.1
v -0.8 0.6 0.1
v -0.8 0.7 0.1
v -0.8 0.8 0.1
v -0.8 0.9 0.1
v -0.8 1 0.1
v -0.8 1.2 0.1
v -0.7 0.1 0.1
v -0.7 0.6 0.1
v -0.7 0.7 0.1
v -0.7 1 0.1
v -0.7 1.2 0.1
v -0.7 1.4 0.1
v -0.6 1.2 0.1
v -0.6 1.4 0.1
v -0.6 1.5 0.1
v -0.4 1.4 0.1
v -0.4 1.5 0.1
v -0.4 1.6 0.1
v 0.4 1.4 0.1
v 0.4 1.5 0.1
v 0.4 1.6 0.1
v 0.6 1.2 0.1
v 0.6 1.4 0.1
v 0.6 1.5 0.1
v 0.7 0.1 0.1
v 0.7 0.7 0.1
v 0.7 1 0.1
v 0.7 1.2 0.1
v 0.7 1.4 0.1
v 0.8 0.1 0.1
v 0.8 0.7 0.1
v 0.8 1 0.1
v 0.8 1.2 0.1
v -0.8 0.1 -0.6
v -0.8 0.7 -0.6
v -0.8 1 -0.6
v -0.8 1.2 -0.6
v -0.7 0.1 -0.6
v -0.7 0.7 -0.6
v -0.7 1 -0.6
v -0.7 1.2 -0.6
v -0.7 1.4 -0.6
v -0.6 1.2 -0.6
v -0.6 1.4 -0.6
v -0.6 1.5 -0.6
v -0.4 1.4 -0.6
v -0.4 1.5 -0.6
v -0.4 1.6 -0.6
v 0.4 1.4 -0.6
v 0.4 1.5 -0.6
v 0.4 1.6 -0.6
v 0.6 1.2 -0.6
v 0.6 1.4 -0.6
v 0.6 1.5 -0.6
v 0.7 0.1 -0.6
v 0.7 0.7 -0.6
v 0.7 1 -0.6
v 0.7 1.2 -0.6
v 0.7 1.4 -0.6
v 0.8 0.1 -0.6
v 0.8 0.7 -0.6
v 0.8 1 -0.6
v 0.8 1.2 -0.6
v -0.8 0.1 0.6
v -0.8 0.7 0.6
v -0.8 1 0.6
v -0.8 1.2 0.6
v -0.7 0.1 0.6
v -0.7 0.7 0.6
v -0.7 1 0.6
v -0.7 1.2 0.6
v -0.7 1.4 0.6
v -0.6 1.2 0.6
v -0.6 1.4 0.6
v -0.6 1.5 0.6
v -0.4 1.4 0.6
v -0.4 1.5 0.6
v -0.4 1.6 0.6
v 0.4 1.4 0.6
v 0.4 1.5 0.6
v 0.4 1.6 0.6
v 0.6 1.2 0.6
v 0.6 1.4 0.6
v 0.6 1.5 0.6
v 0.7 0.1 0.6
v 0.7 0.7 0.6
v 0.7 1 0.6
v 0.7 1.2 0.6
v 0.7 1.4 0.6
v 0.8 0.1 0.6
v 0.8 0.7 0.6
v 0.8 1 0.6
v 0.8 1.2 0.6
v -0.9 0.7 -0.1
v -0.9 1 -0.1
v -0.8 0.1 -0.1
v -0.8 0.6 -0.1
v -0.8 0.7 -0.1
v -0.8 0.8 -0.1
v -0.8 0.9 -0.1
v -0.8 1 -0.1
v -0.8 1.2 -0.1
v -0.7 0.1 -0.1
v -0.7 0.6 -0.1
v -0.7 0.7 -0.1
v -0.7 1 -0.1
v -0.7 1.2 -0.1
v -0.7 1.4 -0.1
v -0.6 1.2 -0.1
v -0.6 1.4 -0.1
v -0.6 1.5 -0.1
v -0.4 1.4 -0.1
v -0.4 1.5 -0.1
v -0.4 1.6 -0.1
v 0.4 1.4 -0.1
v 0.4 1.5 -0.1
v 0.4 1.6 -0.1
v 0.6 1.2 -0.1
v 0.6 1.4 -0.1
v 0.6 1.5 -0.1
v 0.7 0.1 -0.1
v 0.7 0.7 -0.1
v 0.7 1 -0.1
v 0.7 1.2 -0.1
v 0.7 1.4 -0.1
v 0.8 0.1 -0.1
v 0.8 0.7 -0.1
v 0.8 1 -0.1
v 0.8 1.2 -0.1
v -0.6 0.1 -0.7
v -0.6 0.7 -0.7
v -0.6 1 -0.7
v -0.6 1.2 -0.7
v -0.5 1.2 -0.7
v -0.5 1.3 -0.7
v -0.4 1.3 -0.7
v -0.4 1.4 -0.7
v 0.4 1.3 -0.7
v 0.4 1.4 -0.7
v 0.5 1.2 -0.7
v 0.5 1.3 -0.7
v 0.6 0.1 -0.7
v 0.6 0.7 -0.7
v 0.6 1 -0.7
v 0.6 1.2 -0.7
v -0.8 0 -0.8
v -0.8 0.8 -0.8
v -0.8 0.9 -0.8
v -0.8 1.2 -0.8
v -0.7 1.2 -0.8
v -0.7 1.4 -0.8
v -0.6 0.1 -0.8
v -0.6 0.7 -0.8
v -0.6 1 -0.8
v -0.6 1.2 -0.8
v -0.6 1.4 -0.8
v -0.6 1.5 -0.8
v -0.5 1.2 -0.8
v -0.5 1.3 -0.8
v -0.4 1.3 -0.8
v -0.4 1.4 -0.8
v -0.4 1.5 -0.8
v -0.4 1.6 -0.8
v 0.4 1.3 -0.8
v 0.4 1.4 -0.8
v 0.4 1.5 -0.8
v 0.4 1.6 -0.8
v 0.5 1.2 -0.8
v 0.5 1.3 -0.8
v 0.6 0.1 -0.8
v 0.6 0.7 -0.8
v 0.6 1 -0.8
v 0.6 1.2 -0.8
v 0.6 1.4 -0.8
v 0.6 1.5 -0.8
v 0.7 0.8 -0.8
v 0.7 0.9 -0.8
v 0.7 1.2 -0.8
v 0.7 1.4 -0.8
v 0.8 0 -0.8
v 0.8 1.2 -0.8
v -0.8 0 0.8
v 0.8 0 0.8
v -0.8 0 -0.8
v 0.8 0 -0.8
v -0.6 0.7 0.8
v 0.6 0.7 0.8
v -0.6 0.7 0.7
v 0.6 0.7 0.7
v -0.8 0.7 0.6
v -0.7 0.7 0.6
v 0.7 0.7 0.6
v 0.8 0.7 0.6
v -0.9 0.7 0.1
v -0.8 0.7 0.1
v -0.7 0.7 0.1
v 0.7 0.7 0.1
v 0.8 0.7 0.1
v -0.9 0.7 -0.1
v -0.8 0.7 -0.1
v -0.7 0.7 -0.1
v 0.7 0.7 -0.1
v 0.8 0.7 -0.1
v -0.8 0.7 -0.6
v -0.7 0.7 -0.6
v 0.7 0.7 -0.6
v 0.8 0.7 -0.6
v -0.6 0.7 -0.7
v 0.6 0.7 -0.7
v -0.6 0.7 -0.8
v 0.6 0.7 -0.8
v -0.6 1.2 0.8
v -0.5 1.2 0.8
v 0.5 1.2 0.8
v 0.6 1.2 0.8
v -0.6 1.2 0.7
v -0.5 1.2 0.7
v 0.5 1.2 0.7
v 0.6 1.2 0.7
v -0.6 1.2 -0.7
v -0.5 1.2 -0.7
v 0.5 1.2 -0.7
v 0.6 1.2 -0.7
v -0.6 1.2 -0.8
v -0.5 1.2 -0.8
v 0.5 1.2 -0.8
v 0.6 1.2 -0.8
v -0.5 1.3 0.8
v -0.4 1.3 0.8
v 0.4 1.3 0.8
v 0.5 1.3 0.8
v -0.5 1.3 0.7
v -0.4 1.3 0.7
v 0.4 1.3 0.7
v 0.5 1.3 0.7
v -0.5 1.3 -0.7
v -0.4 1.3 -0.7
v 0.4 1.3 -0.7
v 0.5 1.3 -0.7
v -0.5 1.3 -0.8
v -0.4 1.3 -0.8
v 0.4 1.3 -0.8
v 0.5 1.3 -0.8
v -0.4 1.4 0.8
v 0.4 1.4 0.8
v -0.4 1.4 0.7
v 0.4 1.4 0.7
v -0.4 1.4 -0.7
v 0.4 1.4 -0.7
v -0.4 1.4 -0.8
v 0.4 1.4 -0.8
v -0.6 0.1 0.8
v 0.6 0.1 0.8
v -0.6 0.1 0.7
v 0.6 0.1 0.7
v -0.8 0.1 0.6
v -0.7 0.1 0.6
v 0.7 0.1 0.6
v 0.8 0.1 0.6
v -0.8 0.1 0.1
v -0.7 0.1 0.1
v 0.7 0.1 0.1
v 0.8 0.1 0.1
v -0.8 0.1 -0.1
v -0.7 0.1 -0.1
v 0.7 0.1 -0.1
v 0.8 0.1 -0.1
v -0.8 0.1 -0.6
v -0.7 0.1 -0.6
v 0.7 0.1 -0.6
v 0.8 0.1 -0.6
v -0.6 0.1 -0.7
v 0.6 0.1 -0.7
v -0.6 0.1 -0.8
v 0.6 0.1 -0.8
v -0.6 1 0.8
v 0.6 1 0.8
v -0.6 1 0.7
v 0.6 1 0.7
v -0.8 1 0.6
v -0.7 1 0.6
v 0.7 1 0.6
v 0.8 1 0.6
v -0.9 1 0.1
v -0.8 1 0.1
v -0.7 1 0.1
v 0.7 1 0.1
v 0.8 1 0.1
v -0.9 1 -0.1
v -0.8 1 -0.1
v -0.7 1 -0.1
v 0.7 1 -0.1
v 0.8 1 -0.1
v -0.8 1 -0.6
v -0.7 1 -0.6
v 0.7 1 -0.6
v 0.8 1 -0.6
v -0.6 1 -0.7
v 0.6 1 -0.7
v -0.6 1 -0.8
v 0.6 1 -0.8
v -0.8 1.2 0.8
v -0.7 1.2 0.8
v 0.7 1.2 0.8
v 0.8 1.2 0.8
v -0.8 1.2 0.6
v -0.7 1.2 0.6
v -0.6 1.2 0.6
v 0.6 1.2 0.6
v 0.7 1.2 0.6
v 0.8 1.2 0.6
v -0.8 1.2 0.1
v -0.7 1.2 0.1
v -0.6 1.2 0.1
v 0.6 1.2 0.1
v 0.7 1.2 0.1
v 0.8 1.2 0.1
v -0.8 1.2 -0.1
v -0.7 1.2 -0.1
v -0.6 1.2 -0.1
v 0.6 1.2 -0.1
v 0.7 1.2 -0.1
v 0.8 1.2 -0.1
v -0.8 1.2 -0.6
v -0.7 1.2 -0.6
v -0.6 1.2 -0.6
v 0.6 1.2 -0.6
v 0.7 1.2 -0.6
v 0.8 1.2 -0.6
v -0.8 1.2 -0.8
v -0.7 1.2 -0.8
v 0.7 1.2 -0.8
v 0.8 1.2 -0.8
v -0.7 1.4 0.8
v -0.6 1.4 0.8
v 0.6 1.4 0.8
v 0.7 1.4 0.8
v -0.7 1.4 0.6
v -0.6 1.4 0.6
v -0.4 1.4 0.6
v 0.4 1.4 0.6
v 0.6 1.4 0.6
v 0.7 1.4 0.6
v -0.7 1.4 0.1
v -0.6 1.4 0.1
v -0.4 1.4 0.1
v 0.4 1.4 0.1
v 0.6 1.4 0.1
v 0.7 1.4 0.1
v -0.7 1.4 -0.1
v -0.6 1.4 -0.1
v -0.4 1.4 -0.1
v 0.4 1.4 -0.1
v 0.6 1.4 -0.1
v 0.7 1.4 -0.1
v -0.7 1.4 -0.6
v -0.6 1.4 -0.6
v -0.4 1.4 -0.6
v 0.4 1.4 -0.6
v 0.6 1.4 -0.6
v 0.7 1.4 -0.6
v -0.7 1.4 -0.8
v -0.6 1.4 -0.8
v 0.6 1.4 -0.8
v 0.7 1.4 -0.8
v -0.6 1.5 0.8
v -0.4 1.5 0.8
v 0.4 1.5 0.8
v 0.6 1.5 0.8
v -0.6 1.5 0.6
v -0.4 1.5 0.6
v 0.4 1.5 0.6
v 0.6 1.5 0.6
v -0.6 1.5 0.1
v -0.4 1.5 0.1
v 0.4 1.5 0.1
v 0.6 1.5 0.1
v -0.6 1.5 -0.1
v -0.4 1.5 -0.1
v 0.4 1.5 -0.1
v 0.6 1.5 -0.1
v -0.6 1.5 -0.6
v -0.4 1.5 -0.6
v 0.4 1.5 -0.6
v 0.6 1.5 -0.6
v -0.6 1.5 -0.8
v -0.4 1.5 -0.8
v 0.4 1.5 -0.8
v 0.6 1.5 -0.8
v -0.4 1.6 0.8
v 0.4 1.6 0.8
v -0.4 1.6 0.6
v 0.4 1.6 0.6
v -0.4 1.6 0.1
v 0.4 1.6 0.1
v -0.4 1.6 -0.1
v 0.4 1.6 -0.1
v -0.4 1.6 -0.6
v 0.4 1.6 -0.6
v -0.4 1.6 -0.8
v 0.4 1.6 -0.8

# faces
f 3/1/1 2/1/1 1/1/1
f 4/1/1 2/1/1 3/1/1
f 7/1/1 6/1/1 5/1/1
f 8/1/1 6/1/1 7/1/1
f 9/1/1 6/1/1 8/1/1
f 10/1/1 6/1/1 9/1/1
f 11/1/1 9/1/1 8/1/1
f 12/1/1 9/1/1 11/1/1
f 13/1/1 7/1/1 5/1/1
f 14/3/1 12/3/1 11/3/1
f 15/3/1 12/3/1 14/3/1
f 16/1/1 6/1/1 10/1/1
f 17/1/1 14/1/1 13/1/1
f 17/1/1 13/1/1 5/1/1
f 18/1/1 14/1/1 17/1/1
f 19/1/1 16/1/1 15/1/1
f 20/1/1 6/1/1 16/1/1
f 20/1/1 16/1/1 19/1/1
f 21/3/1 18/3/1 17/3/1
f 22/3/1 18/3/1 21/3/1
f 23/3/1 20/3/1 19/3/1
f 24/3/1 20/3/1 23/3/1
f 25/1/1 22/1/1 21/1/1
f 26/1/1 22/1/1 25/1/1
f 27/1/1 24/1/1 23/1/1
f 28/1/1 24/1/1 27/1/1
f 29/1/1 25/1/1 21/1/1
f 30/1/1 25/1/1 29/1/1
f 31/1/1 27/1/1 26/1/1
f 32/1/1 27/1/1 31/1/1
f 33/1/1 24/1/1 28/1/1
f 34/1/1 24/1/1 33/1/1
f 39/2/1 36/2/1 35/2/1
f 40/2/1 38/2/1 37/2/1
f 41/2/1 39/2/1 35/2/1
f 42/2/1 39/2/1 41/2/1
f 43/2/1 38/2/1 40/2/1
f 44/2/1 38/2/1 43/2/1
f 50/2/1 46/2/1 45/2/1
f 51/2/1 46/2/1 50/2/1
f 52/2/1 48/2/1 47/2/1
f 53/2/1 48/2/1 52/2/1
f 55/1/1 50/1/1 49/1/1
f 56/1/1 50/1/1 55/1/1
f 57/1/1 52/1/1 51/1/1
f 58/1/1 52/1/1 57/1/1
f 59/1/1 54/1/1 53/1/1
f 60/1/1 54/1/1 59/1/1
f 66/2/1 62/2/1 61/2/1
f 67/2/1 62/2/1 66/2/1
f 68/2/1 64/2/1 63/2/1
f 69/2/1 64/2/1 68/2/1
f 71/1/1 66/1/1 65/1/1
f 72/1/1 66/1/1 71/1/1
f 73/1/1 68/1/1 67/1/1
f 74/1/1 68/1/1 73/1/1
f 75/1/1 70/1/1 69/1/1
f 76/1/1 70/1/1 75/1/1
f 82/2/1 78/2/1 77/2/1
f 83/2/1 78/2/1 82/2/1
f 84/2/1 80/2/1 79/2/1
f 85/2/1 80/2/1 84/2/1
f 87/1/1 82/1/1 81/1/1
f 88/1/1 82/1/1 87/1/1
f 89/1/1 84/1/1 83/1/1
f 90/1/1 84/1/1 89/1/1
f 91/1/1 86/1/1 85/1/1
f 92/1/1 86/1/1 91/1/1
f 97/1/1 94/1/1 93/1/1
f 98/1/1 94/1/1 97/1/1
f 99/1/1 96/1/1 95/1/1
f 100/1/1 96/1/1 99/1/1
f 105/1/1 102/1/1 101/1/1
f 106/1/1 102/1/1 105/1/1
f 107/1/1 104/1/1 103/1/1
f 108/1/1 104/1/1 107/1/1
f 113/1/1 110/1/1 109/1/1
f 114/1/1 110/1/1 113/1/1
f 115/1/1 112/1/1 111/1/1
f 116/1/1 112/1/1 115/1/1
f 121/1/1 118/1/1 117/1/1
f 122/1/1 118/1/1 121/1/1
f 123/1/1 120/1/1 119/1/1
f 124/1/1 120/1/1 123/1/1
f 125/1/2 126/1/2 129/1/2
f 129/1/2 126/1/2 130/1/2
f 127/1/2 128/1/2 131/1/2
f 131/1/2 128/1/2 132/1/2
f 133/1/2 134/1/2 137/1/2
f 137/1/2 134/1/2 138/1/2
f 135/1/2 136/1/2 139/1/2
f 139/1/2 136/1/2 140/1/2
f 141/1/2 142/1/2 145/1/2
f 145/1/2 142/1/2 146/1/2
f 143/1/2 144/1/2 147/1/2
f 147/1/2 144/1/2 148/1/2
f 149/1/2 150/1/2 153/1/2
f 153/1/2 150/1/2 154/1/2
f 151/1/2 152/1/2 155/1/2
f 155/1/2 152/1/2 156/1/2
f 157/2/2 158/2/2 162/2/2
f 162/2/2 158/2/2 163/2/2
f 159/2/2 160/2/2 164/2/2
f 164/2/2 160/2/2 165/2/2
f 161/1/2 162/1/2 167/1/2
f 167/1/2 162/1/2 168/1/2
f 163/1/2 164/1/2 169/1/2
f 169/1/2 164/1/2 170/1/2
f 165/1/2 166/1/2 171/1/2
f 171/1/2 166/1/2 172/1/2
f 173/2/2 174/2/2 178/2/2
f 178/2/2 174/2/2 179/2/2
f 175/2/2 176/2/2 180/2/2
f 180/2/2 176/2/2 181/2/2
f 177/1/2 178/1/2 183/1/2
f 183/1/2 178/1/2 184/1/2
f 179/1/2 180/1/2 185/1/2
f 185/1/2 180/1/2 186/1/2
f 181/1/2 182/1/2 187/1/2
f 187/1/2 182/1/2 188/1/2
f 189/2/2 190/2/2 193/2/2
f 193/2/2 190/2/2 194/2/2
f 191/2/2 192/2/2 195/2/2
f 195/2/2 192/2/2 196/2/2
f 197/2/2 198/2/2 202/2/2
f 202/2/2 198/2/2 203/2/2
f 199/2/2 200/2/2 204/2/2
f 204/2/2 200/2/2 205/2/2
f 201/1/2 202/1/2 207/1/2
f 207/1/2 202/1/2 208/1/2
f 203/1/2 204/1/2 209/1/2
f 209/1/2 204/1/2 210/1/2
f 205/1/2 206/1/2 211/1/2
f 211/1/2 206/1/2 212/1/2
f 213/1/2 214/1/2 215/1/2
f 215/1/2 214/1/2 216/1/2
f 216/1/2 214/1/2 217/1/2
f 217/1/2 214/1/2 218/1/2
f 213/1/2 215/1/2 219/1/2
f 216/1/2 217/1/2 220/1/2
f 220/1/2 217/1/2 221/1/2
f 218/1/2 214/1/2 222/1/2
f 220/1/2 221/1/2 223/1/2
f 221/1/2 222/1/2 223/1/2
f 213/1/2 219/1/2 223/1/2
f 219/1/2 220/1/2 223/1/2
f 223/1/2 222/1/2 224/1/2
f 224/1/2 222/1/2 225/1/2
f 225/1/2 222/1/2 226/1/2
f 222/1/2 214/1/2 227/1/2
f 226/1/2 222/1/2 227/1/2
f 227/1/2 214/1/2 228/1/2
f 213/1/2 223/1/2 229/1/2
f 223/3/2 224/3/2 229/3/2
f 224/1/2 225/1/2 230/1/2
f 229/3/2 224/3/2 230/3/2
f 225/3/2 226/3/2 231/3/2
f 230/1/2 225/1/2 231/1/2
f 226/1/2 227/1/2 232/1/2
f 231/3/2 226/3/2 232/3/2
f 227/3/2 228/3/2 233/3/2
f 232/1/2 227/1/2 233/1/2
f 228/1/2 214/1/2 234/1/2
f 233/3/2 228/3/2 234/3/2
f 229/1/2 230/1/2 235/1/2
f 232/1/2 233/1/2 235/1/2
f 233/1/2 234/1/2 235/1/2
f 230/1/2 231/1/2 235/1/2
f 231/1/2 232/1/2 235/1/2
f 235/1/2 234/1/2 236/1/2
f 236/1/2 234/1/2 237/1/2
f 237/1/2 234/1/2 238/1/2
f 213/1/2 229/1/2 239/1/2
f 229/1/2 235/1/2 239/1/2
f 239/1/2 235/1/2 240/1/2
f 236/1/2 237/1/2 241/1/2
f 241/1/2 237/1/2 242/1/2
f 238/1/2 234/1/2 243/1/2
f 234/1/2 214/1/2 244/1/2
f 243/1/2 234/1/2 244/1/2
f 249/1/3 248/1/3 247/1/3
f 251/1/3 246/1/3 245/1/3
f 252/1/3 246/1/3 251/1/3
f 253/1/3 250/1/3 249/1/3
f 253/1/3 249/1/3 247/1/3
f 254/1/3 250/1/3 253/1/3
f 255/1/3 250/1/3 254/1/3
f 257/1/3 256/1/3 255/1/3
f 257/1/3 255/1/3 254/1/3
f 258/1/3 256/1/3 257/1/3
f 259/1/3 256/1/3 258/1/3
f 260/1/3 256/1/3 259/1/3
f 261/1/3 256/1/3 260/1/3
f 264/1/3 262/1/3 261/1/3
f 264/1/3 261/1/3 260/1/3
f 265/1/3 262/1/3 264/1/3
f 266/1/3 262/1/3 265/1/3
f 268/1/3 264/1/3 263/1/3
f 268/1/3 265/1/3 264/1/3
f 269/1/3 251/1/3 245/1/3
f 270/1/3 246/1/3 252/1/3
f 271/1/3 253/1/3 247/1/3
f 272/1/3 268/1/3 267/1/3
f 273/1/3 265/1/3 268/1/3
f 273/1/3 268/1/3 272/1/3
f 274/1/3 265/1/3 273/1/3
f 275/3/3 247/3/3 246/3/3
f 275/1/3 270/1/3 269/1/3
f 275/1/3 246/1/3 270/1/3
f 276/1/3 273/1/3 272/1/3
f 276/3/3 247/3/3 275/3/3
f 276/1/3 271/1/3 247/1/3
f 276/1/3 272/1/3 271/1/3
f 277/1/3 273/1/3 276/1/3
f 278/1/3 273/1/3 277/1/3
f 279/1/3 269/1/3 245/1/3
f 279/1/3 275/1/3 269/1/3
f 279/1/3 277/1/3 276/1/3
f 279/1/3 276/1/3 275/1/3
f 280/1/3 277/1/3 279/1/3
f 285/2/3 284/2/3 283/2/3
f 287/2/3 286/2/3 285/2/3
f 289/2/3 287/2/3 285/2/3
f 289/2/3 288/2/3 287/2/3
f 290/2/3 288/2/3 289/2/3
f 291/2/3 285/2/3 283/2/3
f 291/2/3 289/2/3 285/2/3
f 292/2/3 289/2/3 291/2/3
f 293/2/3 282/2/3 281/2/3
f 294/2/3 282/2/3 293/2/3
f 295/2/3 291/2/3 283/2/3
f 296/2/3 291/2/3 295/2/3
f 301/1/3 298/1/3 297/1/3
f 302/1/3 298/1/3 301/1/3
f 303/1/3 298/1/3 302/1/3
f 304/1/3 298/1/3 303/1/3
f 306/1/3 300/1/3 299/1/3
f 307/3/3 301/3/3 300/3/3
f 307/1/3 300/1/3 306/1/3
f 308/3/3 301/3/3 307/3/3
f 309/1/3 305/1/3 304/1/3
f 310/1/3 305/1/3 309/1/3
f 312/1/3 311/1/3 310/1/3
f 313/1/3 311/1/3 312/1/3
f 315/1/3 314/1/3 313/1/3
f 316/1/3 314/1/3 315/1/3
f 319/1/3 317/1/3 316/1/3
f 320/1/3 317/1/3 319/1/3
f 322/1/3 319/1/3 318/1/3
f 323/1/3 319/1/3 322/1/3
f 327/1/3 322/1/3 321/1/3
f 328/1/3 322/1/3 327/1/3
f 329/1/3 325/1/3 324/1/3
f 330/1/3 325/1/3 329/1/3
f 331/1/3 327/1/3 326/1/3
f 332/1/3 327/1/3 331/1/3
f 337/1/3 334/1/3 333/1/3
f 338/1/3 334/1/3 337/1/3
f 339/1/3 336/1/3 335/1/3
f 340/1/3 336/1/3 339/1/3
f 342/1/3 341/1/3 340/1/3
f 343/1/3 341/1/3 342/1/3
f 345/1/3 344/1/3 343/1/3
f 346/1/3 344/1/3 345/1/3
f 349/1/3 347/1/3 346/1/3
f 350/1/3 347/1/3 349/1/3
f 352/1/3 349/1/3 348/1/3
f 353/1/3 349/1/3 352/1/3
f 357/1/3 352/1/3 351/1/3
f 358/1/3 352/1/3 357/1/3
f 359/1/3 355/1/3 354/1/3
f 360/1/3 355/1/3 359/1/3
f 361/1/3 357/1/3 356/1/3
f 362/1/3 357/1/3 361/1/3
f 363/1/4 364/1/4 367/1/4
f 367/1/4 364/1/4 368/1/4
f 365/1/4 366/1/4 369/1/4
f 369/1/4 366/1/4 370/1/4
f 370/1/4 371/1/4 372/1/4
f 372/1/4 371/1/4 373/1/4
f 373/1/4 374/1/4 375/1/4
f 375/1/4 374/1/4 376/1/4
f 376/1/4 377/1/4 379/1/4
f 379/1/4 377/1/4 380/1/4
f 378/1/4 379/1/4 382/1/4
f 382/1/4 379/1/4 383/1/4
f 381/1/4 382/1/4 387/1/4
f 387/1/4 382/1/4 388/1/4
f 384/1/4 385/1/4 389/1/4
f 389/1/4 385/1/4 390/1/4
f 386/1/4 387/1/4 391/1/4
f 391/1/4 387/1/4 392/1/4
f 393/1/4 394/1/4 397/1/4
f 397/1/4 394/1/4 398/1/4
f 398/1/4 394/1/4 399/1/4
f 399/1/4 394/1/4 400/1/4
f 395/1/4 396/1/4 402/1/4
f 396/3/4 397/3/4 403/3/4
f 402/1/4 396/1/4 403/1/4
f 403/3/4 397/3/4 404/3/4
f 400/1/4 401/1/4 405/1/4
f 405/1/4 401/1/4 406/1/4
f 406/1/4 407/1/4 408/1/4
f 408/1/4 407/1/4 409/1/4
f 409/1/4 410/1/4 411/1/4
f 411/1/4 410/1/4 412/1/4
f 412/1/4 413/1/4 415/1/4
f 415/1/4 413/1/4 416/1/4
f 414/1/4 415/1/4 418/1/4
f 418/1/4 415/1/4 419/1/4
f 417/1/4 418/1/4 423/1/4
f 423/1/4 418/1/4 424/1/4
f 420/1/4 421/1/4 425/1/4
f 425/1/4 421/1/4 426/1/4
f 422/1/4 423/1/4 427/1/4
f 427/1/4 423/1/4 428/1/4
f 431/2/4 432/2/4 433/2/4
f 433/2/4 434/2/4 435/2/4
f 433/2/4 435/2/4 437/2/4
f 435/2/4 436/2/4 437/2/4
f 437/2/4 436/2/4 438/2/4
f 431/2/4 433/2/4 439/2/4
f 433/2/4 437/2/4 439/2/4
f 439/2/4 437/2/4 440/2/4
f 429/2/4 430/2/4 441/2/4
f 441/2/4 430/2/4 442/2/4
f 431/2/4 439/2/4 443/2/4
f 443/2/4 439/2/4 444/2/4
f 447/1/4 448/1/4 449/1/4
f 445/1/4 446/1/4 451/1/4
f 451/1/4 446/1/4 452/1/4
f 449/1/4 450/1/4 453/1/4
f 447/1/4 449/1/4 453/1/4
f 453/1/4 450/1/4 454/1/4
f 454/1/4 450/1/4 455/1/4
f 455/1/4 456/1/4 457/1/4
f 454/1/4 455/1/4 457/1/4
f 457/1/4 456/1/4 458/1/4
f 458/1/4 456/1/4 459/1/4
f 459/1/4 456/1/4 460/1/4
f 460/1/4 456/1/4 461/1/4
f 461/1/4 462/1/4 464/1/4
f 460/1/4 461/1/4 464/1/4
f 464/1/4 462/1/4 465/1/4
f 465/1/4 462/1/4 466/1/4
f 463/1/4 464/1/4 468/1/4
f 464/1/4 465/1/4 468/1/4
f 445/1/4 451/1/4 469/1/4
f 452/1/4 446/1/4 470/1/4
f 447/1/4 453/1/4 471/1/4
f 467/1/4 468/1/4 472/1/4
f 468/1/4 465/1/4 473/1/4
f 472/1/4 468/1/4 473/1/4
f 473/1/4 465/1/4 474/1/4
f 446/3/4 447/3/4 475/3/4
f 469/1/4 470/1/4 475/1/4
f 470/1/4 446/1/4 475/1/4
f 472/1/4 473/1/4 476/1/4
f 475/3/4 447/3/4 476/3/4
f 447/1/4 471/1/4 476/1/4
f 471/1/4 472/1/4 476/1/4
f 476/1/4 473/1/4 477/1/4
f 477/1/4 473/1/4 478/1/4
f 445/1/4 469/1/4 479/1/4
f 469/1/4 475/1/4 479/1/4
f 476/1/4 477/1/4 479/1/4
f 475/1/4 476/1/4 479/1/4
f 479/1/4 477/1/4 480/1/4
f 483/1/5 482/1/5 481/1/5
f 484/1/5 482/1/5 483/1/5
f 487/1/5 486/1/5 485/1/5
f 488/1/5 486/1/5 487/1/5
f 494/1/5 490/1/5 489/1/5
f 495/1/5 490/1/5 494/1/5
f 496/1/5 492/1/5 491/1/5
f 497/1/5 492/1/5 496/1/5
f 498/1/5 494/1/5 493/1/5
f 499/1/5 494/1/5 498/1/5
f 503/1/5 500/1/5 499/1/5
f 504/1/5 500/1/5 503/1/5
f 505/1/5 502/1/5 501/1/5
f 506/1/5 502/1/5 505/1/5
f 509/1/5 508/1/5 507/1/5
f 510/1/5 508/1/5 509/1/5
f 515/1/5 512/1/5 511/1/5
f 516/1/5 512/1/5 515/1/5
f 517/1/5 514/1/5 513/1/5
f 518/1/5 514/1/5 517/1/5
f 523/1/5 520/1/5 519/1/5
f 524/1/5 520/1/5 523/1/5
f 525/1/5 522/1/5 521/1/5
f 526/1/5 522/1/5 525/1/5
f 531/1/5 528/1/5 527/1/5
f 532/1/5 528/1/5 531/1/5
f 533/1/5 530/1/5 529/1/5
f 534/1/5 530/1/5 533/1/5
f 539/1/5 536/1/5 535/1/5
f 540/1/5 536/1/5 539/1/5
f 541/1/5 538/1/5 537/1/5
f 542/1/5 538/1/5 541/1/5
f 545/1/5 544/1/5 543/1/5
f 546/1/5 544/1/5 545/1/5
f 549/1/5 548/1/5 547/1/5
f 550/1/5 548/1/5 549/1/5
f 551/1/6 552/1/6 553/1/6
f 553/1/6 552/1/6 554/1/6
f 555/1/6 556/1/6 559/1/6
f 559/1/6 556/1/6 560/1/6
f 557/1/6 558/1/6 561/1/6
f 561/1/6 558/1/6 562/1/6
f 563/1/6 564/1/6 567/1/6
f 567/1/6 564/1/6 568/1/6
f 565/1/6 566/1/6 569/1/6
f 569/1/6 566/1/6 570/1/6
f 571/1/6 572/1/6 573/1/6
f 573/1/6 572/1/6 574/1/6
f 575/1/6 576/1/6 577/1/6
f 577/1/6 576/1/6 578/1/6
f 579/1/6 580/1/6 584/1/6
f 584/1/6 580/1/6 585/1/6
f 581/1/6 582/1/6 586/1/6
f 586/1/6 582/1/6 587/1/6
f 583/1/6 584/1/6 588/1/6
f 588/1/6 584/1/6 589/1/6
f 589/1/6 590/1/6 593/1/6
f 593/1/6 590/1/6 594/1/6
f 591/1/6 592/1/6 595/1/6
f 595/1/6 592/1/6 596/1/6
f 597/1/6 598/1/6 599/1/6
f 599/1/6 598/1/6 600/1/6
f 601/1/6 602/1/6 605/1/6
f 605/1/6 602/1/6 606/1/6
f 603/1/6 604/1/6 609/1/6
f 609/1/6 604/1/6 610/1/6
f 606/2/6 607/2/6 612/2/6
f 612/2/6 607/2/6 613/2/6
f 608/2/6 609/2/6 614/2/6
f 614/2/6 609/2/6 615/2/6
f 611/1/6 612/1/6 617/1/6
f 617/1/6 612/1/6 618/1/6
f 615/1/6 616/1/6 621/1/6
f 621/1/6 616/1/6 622/1/6
f 618/2/6 619/2/6 624/2/6
f 624/2/6 619/2/6 625/2/6
f 620/2/6 621/2/6 626/2/6
f 626/2/6 621/2/6 627/2/6
f 623/1/6 624/1/6 629/1/6
f 629/1/6 624/1/6 630/1/6
f 627/1/6 628/1/6 631/1/6
f 631/1/6 628/1/6 632/1/6
f 633/1/6 634/1/6 637/1/6
f 637/1/6 634/1/6 638/1/6
f 635/1/6 636/1/6 641/1/6
f 641/1/6 636/1/6 642/1/6
f 638/2/6 639/2/6 644/2/6
f 644/2/6 639/2/6 645/2/6
f 640/2/6 641/2/6 646/2/6
f 646/2/6 641/2/6 647/2/6
f 643/1/6 644/1/6 649/1/6
f 649/1/6 644/1/6 650/1/6
f 647/1/6 648/1/6 653/1/6
f 653/1/6 648/1/6 654/1/6
f 650/2/6 651/2/6 656/2/6
f 656/2/6 651/2/6 657/2/6
f 652/2/6 653/2/6 658/2/6
f 658/2/6 653/2/6 659/2/6
f 655/1/6 656/1/6 661/1/6
f 661/1/6 656/1/6 662/1/6
f 659/1/6 660/1/6 663/1/6
f 663/1/6 660/1/6 664/1/6
f 665/1/6 666/1/6 669/1/6
f 669/1/6 666/1/6 670/1/6
f 667/1/6 668/1/6 671/1/6
f 671/1/6 668/1/6 672/1/6
f 670/2/6 671/2/6 674/2/6
f 674/2/6 671/2/6 675/2/6
f 673/1/6 674/1/6 677/1/6
f 677/1/6 674/1/6 678/1/6
f 675/1/6 676/1/6 679/1/6
f 679/1/6 676/1/6 680/1/6
f 678/2/6 679/2/6 682/2/6
f 682/2/6 679/2/6 683/2/6
f 681/1/6 682/1/6 685/1/6
f 685/1/6 682/1/6 686/1/6
f 683/1/6 684/1/6 687/1/6
f 687/1/6 684/1/6 688/1/6
f 689/1/6 690/1/6 691/1/6
f 691/1/6 690/1/6 692/1/6
f 693/1/6 694/1/6 695/1/6
f 695/1/6 694/1/6 696/1/6
f 697/1/6 698/1/6 699/1/6
f 699/1/6 698/1/6 700/1/6
