# MagicaVoxel @ Ephtracy

# group
o 

# material
mtllib LockedDoorV2.mtl
usemtl palette

# normals
vn -1 0 0
vn 1 0 0
vn 0 0 1
vn 0 0 -1
vn 0 -1 0
vn 0 1 0

# texcoords
vt 0.814453 0.5
vt 0.994141 0.5

# verts
v -1.6 0 0.5
v -1.6 0 0.3
v -1.6 0.2 0.5
v -1.6 0.2 0.4
v -1.6 0.2 0.3
v -1.6 0.2 0.2
v -1.6 0.4 0.4
v -1.6 0.4 0.3
v -1.6 0.4 0.2
v -1.6 0.4 0.1
v -1.6 0.6 0.3
v -1.6 0.6 0.2
v -1.6 0.6 0.1
v -1.6 0.6 0
v -1.6 0.8 0.2
v -1.6 0.8 0.1
v -1.6 0.8 0
v -1.6 0.8 -0.1
v -1.6 1 0.1
v -1.6 1 0
v -1.6 1 -0.1
v -1.6 1 -0.2
v -1.6 1.2 0
v -1.6 1.2 -0.1
v -1.6 1.2 -0.2
v -1.6 1.2 -0.3
v -1.6 1.4 -0.1
v -1.6 1.4 -0.2
v -1.6 1.4 -0.3
v -1.6 1.4 -0.4
v -1.6 1.6 -0.2
v -1.6 1.6 -0.3
v -1.6 1.6 -0.4
v -1.6 1.6 -0.5
v -1.6 1.8 -0.3
v -1.6 1.8 -0.4
v -1.6 1.8 -0.5
v -1.6 1.8 -0.6
v -1.6 2 -0.4
v -1.6 2 -0.5
v -1.6 2 -0.6
v -1.6 2 -0.7
v -1.6 2.2 -0.5
v -1.6 2.2 -0.6
v -1.6 2.2 -0.7
v -1.6 2.2 -1.3
v -1.6 2.4 -0.6
v -1.6 2.4 -1.3
v 0.1 0.8 0.1
v 0.1 0.8 0
v 0.1 1 0.1
v 0.1 1 0
v 0.1 1 -0.1
v 0.1 1.1 0
v 0.1 1.1 -0.1
v 0.1 1.4 -0.2
v 0.1 1.4 -0.3
v 0.1 1.5 -0.2
v 0.1 1.5 -0.3
v 0.2 1.1 0
v 0.2 1.1 -0.1
v 0.2 1.2 0
v 0.2 1.2 -0.1
v 0.2 1.2 -0.2
v 0.2 1.4 -0.1
v 0.2 1.4 -0.2
v -0.2 1.1 0
v -0.2 1.1 -0.1
v -0.2 1.2 0
v -0.2 1.2 -0.1
v -0.2 1.2 -0.2
v -0.2 1.4 -0.1
v -0.2 1.4 -0.2
v -0.1 0.8 0.1
v -0.1 0.8 0
v -0.1 1 0.1
v -0.1 1 0
v -0.1 1 -0.1
v -0.1 1.1 0
v -0.1 1.1 -0.1
v -0.1 1.4 -0.2
v -0.1 1.4 -0.3
v -0.1 1.5 -0.2
v -0.1 1.5 -0.3
v 1.6 0 0.5
v 1.6 0 0.3
v 1.6 0.2 0.5
v 1.6 0.2 0.4
v 1.6 0.2 0.3
v 1.6 0.2 0.2
v 1.6 0.4 0.4
v 1.6 0.4 0.3
v 1.6 0.4 0.2
v 1.6 0.4 0.1
v 1.6 0.6 0.3
v 1.6 0.6 0.2
v 1.6 0.6 0.1
v 1.6 0.6 0
v 1.6 0.8 0.2
v 1.6 0.8 0.1
v 1.6 0.8 0
v 1.6 0.8 -0.1
v 1.6 1 0.1
v 1.6 1 0
v 1.6 1 -0.1
v 1.6 1 -0.2
v 1.6 1.2 0
v 1.6 1.2 -0.1
v 1.6 1.2 -0.2
v 1.6 1.2 -0.3
v 1.6 1.4 -0.1
v 1.6 1.4 -0.2
v 1.6 1.4 -0.3
v 1.6 1.4 -0.4
v 1.6 1.6 -0.2
v 1.6 1.6 -0.3
v 1.6 1.6 -0.4
v 1.6 1.6 -0.5
v 1.6 1.8 -0.3
v 1.6 1.8 -0.4
v 1.6 1.8 -0.5
v 1.6 1.8 -0.6
v 1.6 2 -0.4
v 1.6 2 -0.5
v 1.6 2 -0.6
v 1.6 2 -0.7
v 1.6 2.2 -0.5
v 1.6 2.2 -0.6
v 1.6 2.2 -0.7
v 1.6 2.2 -1.3
v 1.6 2.4 -0.6
v 1.6 2.4 -1.3
v -1.6 0 0.5
v -1.6 0.2 0.5
v 1.6 0 0.5
v 1.6 0.2 0.5
v -1.6 0.2 0.4
v -1.6 0.4 0.4
v -1.3 0.2 0.4
v -1.3 0.4 0.4
v -1.2 0.3 0.4
v -1.2 0.4 0.4
v 1.2 0.3 0.4
v 1.2 0.4 0.4
v 1.3 0.2 0.4
v 1.3 0.4 0.4
v 1.6 0.2 0.4
v 1.6 0.4 0.4
v -1.6 0.4 0.3
v -1.6 0.6 0.3
v -1.3 0.4 0.3
v -1.3 0.6 0.3
v -1.2 0.4 0.3
v -1.2 0.6 0.3
v 1.2 0.4 0.3
v 1.2 0.6 0.3
v 1.3 0.4 0.3
v 1.3 0.6 0.3
v 1.6 0.4 0.3
v 1.6 0.6 0.3
v -1.6 0.6 0.2
v -1.6 0.8 0.2
v -1.3 0.6 0.2
v -1.3 0.8 0.2
v -1.2 0.6 0.2
v -1.2 0.8 0.2
v 1.2 0.6 0.2
v 1.2 0.8 0.2
v 1.3 0.6 0.2
v 1.3 0.8 0.2
v 1.6 0.6 0.2
v 1.6 0.8 0.2
v -1.6 0.8 0.1
v -1.6 1 0.1
v -1.3 0.8 0.1
v -1.3 1 0.1
v -1.2 0.8 0.1
v -1.2 1 0.1
v -0.1 0.8 0.1
v -0.1 1 0.1
v 0.1 0.8 0.1
v 0.1 1 0.1
v 1.2 0.8 0.1
v 1.2 1 0.1
v 1.3 0.8 0.1
v 1.3 1 0.1
v 1.6 0.8 0.1
v 1.6 1 0.1
v -1.6 1 0
v -1.6 1.2 0
v -1.3 1 0
v -1.3 1.2 0
v -1.2 1 0
v -1.2 1.2 0
v -0.2 1.1 0
v -0.2 1.2 0
v -0.1 0.8 0
v -0.1 1 0
v -0.1 1.1 0
v 0.1 0.8 0
v 0.1 1 0
v 0.1 1.1 0
v 0.2 1.1 0
v 0.2 1.2 0
v 1.2 1 0
v 1.2 1.2 0
v 1.3 1 0
v 1.3 1.2 0
v 1.6 1 0
v 1.6 1.2 0
v -1.6 1.2 -0.1
v -1.6 1.4 -0.1
v -1.3 1.2 -0.1
v -1.3 1.4 -0.1
v -1.2 1.2 -0.1
v -1.2 1.4 -0.1
v -0.2 1.1 -0.1
v -0.2 1.2 -0.1
v -0.2 1.4 -0.1
v -0.1 1 -0.1
v -0.1 1.1 -0.1
v 0.1 1 -0.1
v 0.1 1.1 -0.1
v 0.2 1.1 -0.1
v 0.2 1.2 -0.1
v 0.2 1.4 -0.1
v 1.2 1.2 -0.1
v 1.2 1.4 -0.1
v 1.3 1.2 -0.1
v 1.3 1.4 -0.1
v 1.6 1.2 -0.1
v 1.6 1.4 -0.1
v -1.6 1.4 -0.2
v -1.6 1.6 -0.2
v -1.3 1.4 -0.2
v -1.3 1.6 -0.2
v -1.2 1.4 -0.2
v -1.2 1.6 -0.2
v -0.2 1.2 -0.2
v -0.2 1.4 -0.2
v -0.1 1.4 -0.2
v -0.1 1.5 -0.2
v 0.1 1.4 -0.2
v 0.1 1.5 -0.2
v 0.2 1.2 -0.2
v 0.2 1.4 -0.2
v 1.2 1.4 -0.2
v 1.2 1.6 -0.2
v 1.3 1.4 -0.2
v 1.3 1.6 -0.2
v 1.6 1.4 -0.2
v 1.6 1.6 -0.2
v -1.6 1.6 -0.3
v -1.6 1.8 -0.3
v -1.3 1.6 -0.3
v -1.3 1.8 -0.3
v -1.2 1.6 -0.3
v -1.2 1.8 -0.3
v -0.1 1.4 -0.3
v -0.1 1.5 -0.3
v 0.1 1.4 -0.3
v 0.1 1.5 -0.3
v 1.2 1.6 -0.3
v 1.2 1.8 -0.3
v 1.3 1.6 -0.3
v 1.3 1.8 -0.3
v 1.6 1.6 -0.3
v 1.6 1.8 -0.3
v -1.6 1.8 -0.4
v -1.6 2 -0.4
v -1.3 1.8 -0.4
v -1.3 2 -0.4
v -1.2 1.8 -0.4
v -1.2 2 -0.4
v 1.2 1.8 -0.4
v 1.2 2 -0.4
v 1.3 1.8 -0.4
v 1.3 2 -0.4
v 1.6 1.8 -0.4
v 1.6 2 -0.4
v -1.6 2 -0.5
v -1.6 2.2 -0.5
v -1.3 2 -0.5
v -1.3 2.2 -0.5
v -1.2 2 -0.5
v -1.2 2.1 -0.5
v 1.2 2 -0.5
v 1.2 2.1 -0.5
v 1.3 2 -0.5
v 1.3 2.2 -0.5
v 1.6 2 -0.5
v 1.6 2.2 -0.5
v -1.6 2.2 -0.6
v -1.6 2.4 -0.6
v -1.3 2.2 -0.6
v 1.3 2.2 -0.6
v 1.6 2.2 -0.6
v 1.6 2.4 -0.6
v -1.6 0 0.3
v -1.6 0.2 0.3
v 1.6 0 0.3
v 1.6 0.2 0.3
v -1.6 0.2 0.2
v -1.6 0.4 0.2
v 1.6 0.2 0.2
v 1.6 0.4 0.2
v -1.6 0.4 0.1
v -1.6 0.6 0.1
v 1.6 0.4 0.1
v 1.6 0.6 0.1
v -1.6 0.6 0
v -1.6 0.8 0
v -0.1 0.8 0
v 0.1 0.8 0
v 1.6 0.6 0
v 1.6 0.8 0
v -1.6 0.8 -0.1
v -1.6 1 -0.1
v -0.1 0.8 -0.1
v -0.1 1 -0.1
v 0.1 0.8 -0.1
v 0.1 1 -0.1
v 1.6 0.8 -0.1
v 1.6 1 -0.1
v -1.6 1 -0.2
v -1.6 1.2 -0.2
v -0.2 1.1 -0.2
v -0.2 1.2 -0.2
v -0.1 1 -0.2
v -0.1 1.1 -0.2
v 0.1 1 -0.2
v 0.1 1.1 -0.2
v 0.2 1.1 -0.2
v 0.2 1.2 -0.2
v 1.6 1 -0.2
v 1.6 1.2 -0.2
v -1.6 1.2 -0.3
v -1.6 1.4 -0.3
v -0.2 1.2 -0.3
v -0.2 1.4 -0.3
v -0.1 1.4 -0.3
v 0.1 1.4 -0.3
v 0.2 1.2 -0.3
v 0.2 1.4 -0.3
v 1.6 1.2 -0.3
v 1.6 1.4 -0.3
v -1.6 1.4 -0.4
v -1.6 1.6 -0.4
v -0.1 1.4 -0.4
v -0.1 1.5 -0.4
v 0.1 1.4 -0.4
v 0.1 1.5 -0.4
v 1.6 1.4 -0.4
v 1.6 1.6 -0.4
v -1.6 1.6 -0.5
v -1.6 1.8 -0.5
v 1.6 1.6 -0.5
v 1.6 1.8 -0.5
v -1.6 1.8 -0.6
v -1.6 2 -0.6
v 1.6 1.8 -0.6
v 1.6 2 -0.6
v -1.6 2 -0.7
v -1.6 2.2 -0.7
v 1.6 2 -0.7
v 1.6 2.2 -0.7
v -1.6 2.2 -1.3
v -1.6 2.4 -1.3
v 1.6 2.2 -1.3
v 1.6 2.4 -1.3
v -1.6 0 0.5
v 1.6 0 0.5
v -1.6 0 0.3
v 1.6 0 0.3
v -1.6 0.2 0.3
v 1.6 0.2 0.3
v -1.6 0.2 0.2
v 1.6 0.2 0.2
v -1.6 0.4 0.2
v 1.6 0.4 0.2
v -1.6 0.4 0.1
v 1.6 0.4 0.1
v -1.6 0.6 0.1
v 1.6 0.6 0.1
v -1.6 0.6 0
v 1.6 0.6 0
v -1.6 0.8 0
v -0.1 0.8 0
v 0.1 0.8 0
v 1.6 0.8 0
v -1.6 0.8 -0.1
v -0.1 0.8 -0.1
v 0.1 0.8 -0.1
v 1.6 0.8 -0.1
v -1.6 1 -0.1
v -0.1 1 -0.1
v 0.1 1 -0.1
v 1.6 1 -0.1
v -1.6 1 -0.2
v -0.1 1 -0.2
v 0.1 1 -0.2
v 1.6 1 -0.2
v -1.6 1.2 -0.2
v -0.2 1.2 -0.2
v 0.2 1.2 -0.2
v 1.6 1.2 -0.2
v -1.6 1.2 -0.3
v -0.2 1.2 -0.3
v 0.2 1.2 -0.3
v 1.6 1.2 -0.3
v -1.6 1.4 -0.3
v -0.2 1.4 -0.3
v -0.1 1.4 -0.3
v 0.1 1.4 -0.3
v 0.2 1.4 -0.3
v 1.6 1.4 -0.3
v -1.6 1.4 -0.4
v -0.1 1.4 -0.4
v 0.1 1.4 -0.4
v 1.6 1.4 -0.4
v -0.1 1.5 -0.2
v 0.1 1.5 -0.2
v -0.1 1.5 -0.3
v 0.1 1.5 -0.3
v -1.6 1.6 -0.4
v 1.6 1.6 -0.4
v -1.6 1.6 -0.5
v 1.6 1.6 -0.5
v -1.6 1.8 -0.5
v 1.6 1.8 -0.5
v -1.6 1.8 -0.6
v 1.6 1.8 -0.6
v -1.6 2 -0.6
v 1.6 2 -0.6
v -1.6 2 -0.7
v 1.6 2 -0.7
v -1.6 2.2 -0.7
v 1.6 2.2 -0.7
v -1.6 2.2 -1.3
v 1.6 2.2 -1.3
v -1.6 0.2 0.5
v 1.6 0.2 0.5
v -1.6 0.2 0.4
v -1.3 0.2 0.4
v 1.3 0.2 0.4
v 1.6 0.2 0.4
v -1.6 0.4 0.4
v -1.3 0.4 0.4
v -1.2 0.4 0.4
v 1.2 0.4 0.4
v 1.3 0.4 0.4
v 1.6 0.4 0.4
v -1.6 0.4 0.3
v -1.3 0.4 0.3
v -1.2 0.4 0.3
v 1.2 0.4 0.3
v 1.3 0.4 0.3
v 1.6 0.4 0.3
v -1.6 0.6 0.3
v -1.3 0.6 0.3
v -1.2 0.6 0.3
v 1.2 0.6 0.3
v 1.3 0.6 0.3
v 1.6 0.6 0.3
v -1.6 0.6 0.2
v -1.3 0.6 0.2
v -1.2 0.6 0.2
v 1.2 0.6 0.2
v 1.3 0.6 0.2
v 1.6 0.6 0.2
v -1.6 0.8 0.2
v -1.3 0.8 0.2
v -1.2 0.8 0.2
v 1.2 0.8 0.2
v 1.3 0.8 0.2
v 1.6 0.8 0.2
v -1.6 0.8 0.1
v -1.3 0.8 0.1
v -1.2 0.8 0.1
v -0.1 0.8 0.1
v 0.1 0.8 0.1
v 1.2 0.8 0.1
v 1.3 0.8 0.1
v 1.6 0.8 0.1
v -0.1 0.8 0
v 0.1 0.8 0
v -1.6 1 0.1
v -1.3 1 0.1
v -1.2 1 0.1
v -0.1 1 0.1
v 0.1 1 0.1
v 1.2 1 0.1
v 1.3 1 0.1
v 1.6 1 0.1
v -1.6 1 0
v -1.3 1 0
v -1.2 1 0
v -0.1 1 0
v 0.1 1 0
v 1.2 1 0
v 1.3 1 0
v 1.6 1 0
v -0.1 1 -0.1
v 0.1 1 -0.1
v -0.2 1.1 0
v -0.1 1.1 0
v 0.1 1.1 0
v 0.2 1.1 0
v -0.2 1.1 -0.1
v -0.1 1.1 -0.1
v 0.1 1.1 -0.1
v 0.2 1.1 -0.1
v -1.6 1.2 0
v -1.3 1.2 0
v -1.2 1.2 0
v -0.2 1.2 0
v 0.2 1.2 0
v 1.2 1.2 0
v 1.3 1.2 0
v 1.6 1.2 0
v -1.6 1.2 -0.1
v -1.3 1.2 -0.1
v -1.2 1.2 -0.1
v -0.2 1.2 -0.1
v 0.2 1.2 -0.1
v 1.2 1.2 -0.1
v 1.3 1.2 -0.1
v 1.6 1.2 -0.1
v -0.2 1.2 -0.2
v 0.2 1.2 -0.2
v -1.6 1.4 -0.1
v -1.3 1.4 -0.1
v -1.2 1.4 -0.1
v -0.2 1.4 -0.1
v 0.2 1.4 -0.1
v 1.2 1.4 -0.1
v 1.3 1.4 -0.1
v 1.6 1.4 -0.1
v -1.6 1.4 -0.2
v -1.3 1.4 -0.2
v -1.2 1.4 -0.2
v -0.2 1.4 -0.2
v -0.1 1.4 -0.2
v 0.1 1.4 -0.2
v 0.2 1.4 -0.2
v 1.2 1.4 -0.2
v 1.3 1.4 -0.2
v 1.6 1.4 -0.2
v -0.1 1.4 -0.3
v 0.1 1.4 -0.3
v -1.6 1.6 -0.2
v -1.3 1.6 -0.2
v -1.2 1.6 -0.2
v 1.2 1.6 -0.2
v 1.3 1.6 -0.2
v 1.6 1.6 -0.2
v -1.6 1.6 -0.3
v -1.3 1.6 -0.3
v -1.2 1.6 -0.3
v 1.2 1.6 -0.3
v 1.3 1.6 -0.3
v 1.6 1.6 -0.3
v -1.6 1.8 -0.3
v -1.3 1.8 -0.3
v -1.2 1.8 -0.3
v 1.2 1.8 -0.3
v 1.3 1.8 -0.3
v 1.6 1.8 -0.3
v -1.6 1.8 -0.4
v -1.3 1.8 -0.4
v -1.2 1.8 -0.4
v 1.2 1.8 -0.4
v 1.3 1.8 -0.4
v 1.6 1.8 -0.4
v -1.6 2 -0.4
v -1.3 2 -0.4
v -1.2 2 -0.4
v 1.2 2 -0.4
v 1.3 2 -0.4
v 1.6 2 -0.4
v -1.6 2 -0.5
v -1.3 2 -0.5
v -1.2 2 -0.5
v 1.2 2 -0.5
v 1.3 2 -0.5
v 1.6 2 -0.5
v -1.6 2.2 -0.5
v -1.3 2.2 -0.5
v 1.3 2.2 -0.5
v 1.6 2.2 -0.5
v -1.6 2.2 -0.6
v -1.3 2.2 -0.6
v 1.3 2.2 -0.6
v 1.6 2.2 -0.6
v -1.6 2.4 -0.6
v 1.6 2.4 -0.6
v -1.6 2.4 -1.3
v 1.6 2.4 -1.3

# faces
f 3/1/1 2/1/1 1/1/1
f 4/1/1 2/1/1 3/1/1
f 5/1/1 2/1/1 4/1/1
f 7/1/1 6/1/1 5/1/1
f 7/1/1 5/1/1 4/1/1
f 8/1/1 6/1/1 7/1/1
f 9/1/1 6/1/1 8/1/1
f 11/1/1 10/1/1 9/1/1
f 11/1/1 9/1/1 8/1/1
f 12/1/1 10/1/1 11/1/1
f 13/1/1 10/1/1 12/1/1
f 15/1/1 14/1/1 13/1/1
f 15/1/1 13/1/1 12/1/1
f 16/1/1 14/1/1 15/1/1
f 17/1/1 14/1/1 16/1/1
f 19/1/1 18/1/1 17/1/1
f 19/1/1 17/1/1 16/1/1
f 20/1/1 18/1/1 19/1/1
f 21/1/1 18/1/1 20/1/1
f 23/1/1 22/1/1 21/1/1
f 23/1/1 21/1/1 20/1/1
f 24/1/1 22/1/1 23/1/1
f 25/1/1 22/1/1 24/1/1
f 27/1/1 26/1/1 25/1/1
f 27/1/1 25/1/1 24/1/1
f 28/1/1 26/1/1 27/1/1
f 29/1/1 26/1/1 28/1/1
f 31/1/1 30/1/1 29/1/1
f 31/1/1 29/1/1 28/1/1
f 32/1/1 30/1/1 31/1/1
f 33/1/1 30/1/1 32/1/1
f 35/1/1 34/1/1 33/1/1
f 35/1/1 33/1/1 32/1/1
f 36/1/1 34/1/1 35/1/1
f 37/1/1 34/1/1 36/1/1
f 39/1/1 38/1/1 37/1/1
f 39/1/1 37/1/1 36/1/1
f 40/1/1 38/1/1 39/1/1
f 41/1/1 38/1/1 40/1/1
f 43/1/1 42/1/1 41/1/1
f 43/1/1 41/1/1 40/1/1
f 44/1/1 42/1/1 43/1/1
f 45/1/1 42/1/1 44/1/1
f 47/1/1 46/1/1 45/1/1
f 47/1/1 45/1/1 44/1/1
f 48/1/1 46/1/1 47/1/1
f 51/1/1 50/1/1 49/1/1
f 52/1/1 50/1/1 51/1/1
f 54/1/1 53/1/1 52/1/1
f 55/1/1 53/1/1 54/1/1
f 58/1/1 57/1/1 56/1/1
f 59/1/1 57/1/1 58/1/1
f 62/1/1 61/1/1 60/1/1
f 63/1/1 61/1/1 62/1/1
f 65/1/1 64/1/1 63/1/1
f 66/1/1 64/1/1 65/1/1
f 67/1/2 68/1/2 69/1/2
f 69/1/2 68/1/2 70/1/2
f 70/1/2 71/1/2 72/1/2
f 72/1/2 71/1/2 73/1/2
f 74/1/2 75/1/2 76/1/2
f 76/1/2 75/1/2 77/1/2
f 77/1/2 78/1/2 79/1/2
f 79/1/2 78/1/2 80/1/2
f 81/1/2 82/1/2 83/1/2
f 83/1/2 82/1/2 84/1/2
f 85/1/2 86/1/2 87/1/2
f 87/1/2 86/1/2 88/1/2
f 88/1/2 86/1/2 89/1/2
f 89/1/2 90/1/2 91/1/2
f 88/1/2 89/1/2 91/1/2
f 91/1/2 90/1/2 92/1/2
f 92/1/2 90/1/2 93/1/2
f 93/1/2 94/1/2 95/1/2
f 92/1/2 93/1/2 95/1/2
f 95/1/2 94/1/2 96/1/2
f 96/1/2 94/1/2 97/1/2
f 97/1/2 98/1/2 99/1/2
f 96/1/2 97/1/2 99/1/2
f 99/1/2 98/1/2 100/1/2
f 100/1/2 98/1/2 101/1/2
f 101/1/2 102/1/2 103/1/2
f 100/1/2 101/1/2 103/1/2
f 103/1/2 102/1/2 104/1/2
f 104/1/2 102/1/2 105/1/2
f 105/1/2 106/1/2 107/1/2
f 104/1/2 105/1/2 107/1/2
f 107/1/2 106/1/2 108/1/2
f 108/1/2 106/1/2 109/1/2
f 109/1/2 110/1/2 111/1/2
f 108/1/2 109/1/2 111/1/2
f 111/1/2 110/1/2 112/1/2
f 112/1/2 110/1/2 113/1/2
f 113/1/2 114/1/2 115/1/2
f 112/1/2 113/1/2 115/1/2
f 115/1/2 114/1/2 116/1/2
f 116/1/2 114/1/2 117/1/2
f 117/1/2 118/1/2 119/1/2
f 116/1/2 117/1/2 119/1/2
f 119/1/2 118/1/2 120/1/2
f 120/1/2 118/1/2 121/1/2
f 121/1/2 122/1/2 123/1/2
f 120/1/2 121/1/2 123/1/2
f 123/1/2 122/1/2 124/1/2
f 124/1/2 122/1/2 125/1/2
f 125/1/2 126/1/2 127/1/2
f 124/1/2 125/1/2 127/1/2
f 127/1/2 126/1/2 128/1/2
f 128/1/2 126/1/2 129/1/2
f 129/1/2 130/1/2 131/1/2
f 128/1/2 129/1/2 131/1/2
f 131/1/2 130/1/2 132/1/2
f 135/1/3 134/1/3 133/1/3
f 136/1/3 134/1/3 135/1/3
f 139/1/3 138/1/3 137/1/3
f 140/1/3 138/1/3 139/1/3
f 141/2/3 140/2/3 139/2/3
f 142/2/3 140/2/3 141/2/3
f 143/2/3 141/2/3 139/2/3
f 143/1/3 142/1/3 141/1/3
f 144/1/3 142/1/3 143/1/3
f 145/2/3 143/2/3 139/2/3
f 145/2/3 144/2/3 143/2/3
f 146/2/3 144/2/3 145/2/3
f 147/1/3 146/1/3 145/1/3
f 148/1/3 146/1/3 147/1/3
f 151/1/3 150/1/3 149/1/3
f 152/1/3 150/1/3 151/1/3
f 153/2/3 152/2/3 151/2/3
f 154/2/3 152/2/3 153/2/3
f 155/1/3 154/1/3 153/1/3
f 156/1/3 154/1/3 155/1/3
f 157/2/3 156/2/3 155/2/3
f 158/2/3 156/2/3 157/2/3
f 159/1/3 158/1/3 157/1/3
f 160/1/3 158/1/3 159/1/3
f 163/1/3 162/1/3 161/1/3
f 164/1/3 162/1/3 163/1/3
f 165/2/3 164/2/3 163/2/3
f 166/2/3 164/2/3 165/2/3
f 167/1/3 166/1/3 165/1/3
f 168/1/3 166/1/3 167/1/3
f 169/2/3 168/2/3 167/2/3
f 170/2/3 168/2/3 169/2/3
f 171/1/3 170/1/3 169/1/3
f 172/1/3 170/1/3 171/1/3
f 175/1/3 174/1/3 173/1/3
f 176/1/3 174/1/3 175/1/3
f 177/2/3 176/2/3 175/2/3
f 178/2/3 176/2/3 177/2/3
f 179/1/3 178/1/3 177/1/3
f 180/1/3 178/1/3 179/1/3
f 183/1/3 182/1/3 181/1/3
f 184/1/3 182/1/3 183/1/3
f 185/2/3 184/2/3 183/2/3
f 186/2/3 184/2/3 185/2/3
f 187/1/3 186/1/3 185/1/3
f 188/1/3 186/1/3 187/1/3
f 191/1/3 190/1/3 189/1/3
f 192/1/3 190/1/3 191/1/3
f 193/2/3 192/2/3 191/2/3
f 194/2/3 192/2/3 193/2/3
f 195/1/3 194/1/3 193/1/3
f 196/1/3 194/1/3 195/1/3
f 198/1/3 195/1/3 193/1/3
f 199/1/3 195/1/3 198/1/3
f 200/2/3 198/2/3 197/2/3
f 201/2/3 198/2/3 200/2/3
f 203/1/3 202/1/3 201/1/3
f 205/1/3 203/1/3 201/1/3
f 205/1/3 204/1/3 203/1/3
f 206/1/3 204/1/3 205/1/3
f 207/2/3 206/2/3 205/2/3
f 208/2/3 206/2/3 207/2/3
f 209/1/3 208/1/3 207/1/3
f 210/1/3 208/1/3 209/1/3
f 213/1/3 212/1/3 211/1/3
f 214/1/3 212/1/3 213/1/3
f 215/2/3 214/2/3 213/2/3
f 216/2/3 214/2/3 215/2/3
f 218/1/3 216/1/3 215/1/3
f 219/1/3 216/1/3 218/1/3
f 221/2/3 218/2/3 217/2/3
f 222/2/3 221/2/3 220/2/3
f 223/2/3 218/2/3 221/2/3
f 223/2/3 221/2/3 222/2/3
f 224/2/3 218/2/3 223/2/3
f 225/2/3 218/2/3 224/2/3
f 227/1/3 226/1/3 225/1/3
f 228/1/3 226/1/3 227/1/3
f 229/2/3 228/2/3 227/2/3
f 230/2/3 228/2/3 229/2/3
f 231/1/3 230/1/3 229/1/3
f 232/1/3 230/1/3 231/1/3
f 235/1/3 234/1/3 233/1/3
f 236/1/3 234/1/3 235/1/3
f 237/2/3 236/2/3 235/2/3
f 238/2/3 236/2/3 237/2/3
f 240/1/3 238/1/3 237/1/3
f 241/1/3 238/1/3 240/1/3
f 241/2/3 240/2/3 239/2/3
f 242/1/3 238/1/3 241/1/3
f 243/2/3 241/2/3 239/2/3
f 244/1/3 238/1/3 242/1/3
f 245/2/3 243/2/3 239/2/3
f 246/1/3 244/1/3 243/1/3
f 246/2/3 243/2/3 245/2/3
f 247/1/3 244/1/3 246/1/3
f 248/1/3 238/1/3 244/1/3
f 248/1/3 244/1/3 247/1/3
f 249/2/3 248/2/3 247/2/3
f 250/2/3 248/2/3 249/2/3
f 251/1/3 250/1/3 249/1/3
f 252/1/3 250/1/3 251/1/3
f 255/1/3 254/1/3 253/1/3
f 256/1/3 254/1/3 255/1/3
f 257/2/3 256/2/3 255/2/3
f 258/2/3 256/2/3 257/2/3
f 261/2/3 260/2/3 259/2/3
f 262/2/3 260/2/3 261/2/3
f 263/1/3 258/1/3 257/1/3
f 264/1/3 258/1/3 263/1/3
f 265/2/3 264/2/3 263/2/3
f 266/2/3 264/2/3 265/2/3
f 267/1/3 266/1/3 265/1/3
f 268/1/3 266/1/3 267/1/3
f 271/1/3 270/1/3 269/1/3
f 272/1/3 270/1/3 271/1/3
f 273/2/3 272/2/3 271/2/3
f 274/2/3 272/2/3 273/2/3
f 275/1/3 274/1/3 273/1/3
f 276/1/3 274/1/3 275/1/3
f 277/2/3 276/2/3 275/2/3
f 278/2/3 276/2/3 277/2/3
f 279/1/3 278/1/3 277/1/3
f 280/1/3 278/1/3 279/1/3
f 283/1/3 282/1/3 281/1/3
f 284/1/3 282/1/3 283/1/3
f 285/2/3 284/2/3 283/2/3
f 286/2/3 284/2/3 285/2/3
f 287/1/3 286/1/3 285/1/3
f 288/2/3 284/2/3 286/2/3
f 288/1/3 286/1/3 287/1/3
f 289/2/3 288/2/3 287/2/3
f 290/2/3 284/2/3 288/2/3
f 290/2/3 288/2/3 289/2/3
f 291/1/3 290/1/3 289/1/3
f 292/1/3 290/1/3 291/1/3
f 295/1/3 294/1/3 293/1/3
f 296/1/3 294/1/3 295/1/3
f 297/1/3 294/1/3 296/1/3
f 298/1/3 294/1/3 297/1/3
f 299/1/4 300/1/4 301/1/4
f 301/1/4 300/1/4 302/1/4
f 303/1/4 304/1/4 305/1/4
f 305/1/4 304/1/4 306/1/4
f 307/1/4 308/1/4 309/1/4
f 309/1/4 308/1/4 310/1/4
f 311/1/4 312/1/4 313/1/4
f 311/1/4 313/1/4 314/1/4
f 311/1/4 314/1/4 315/1/4
f 315/1/4 314/1/4 316/1/4
f 317/1/4 318/1/4 319/1/4
f 319/1/4 318/1/4 320/1/4
f 319/2/4 320/2/4 321/2/4
f 321/2/4 320/2/4 322/2/4
f 321/1/4 322/1/4 323/1/4
f 323/1/4 322/1/4 324/1/4
f 325/1/4 326/1/4 327/1/4
f 327/1/4 326/1/4 328/1/4
f 325/1/4 327/1/4 329/1/4
f 327/2/4 328/2/4 330/2/4
f 329/1/4 327/1/4 330/1/4
f 329/2/4 330/2/4 331/2/4
f 330/2/4 328/2/4 332/2/4
f 331/2/4 330/2/4 332/2/4
f 331/1/4 332/1/4 333/1/4
f 332/2/4 328/2/4 333/2/4
f 333/2/4 328/2/4 334/2/4
f 331/1/4 333/1/4 335/1/4
f 333/1/4 334/1/4 335/1/4
f 335/1/4 334/1/4 336/1/4
f 337/1/4 338/1/4 339/1/4
f 339/1/4 338/1/4 340/1/4
f 339/2/4 340/2/4 341/2/4
f 339/2/4 341/2/4 342/2/4
f 339/2/4 342/2/4 343/2/4
f 343/2/4 342/2/4 344/2/4
f 343/1/4 344/1/4 345/1/4
f 345/1/4 344/1/4 346/1/4
f 347/1/4 348/1/4 349/1/4
f 349/1/4 348/1/4 350/1/4
f 349/2/4 350/2/4 351/2/4
f 350/1/4 348/1/4 352/1/4
f 351/2/4 350/2/4 352/2/4
f 351/1/4 352/1/4 353/1/4
f 352/1/4 348/1/4 354/1/4
f 353/1/4 352/1/4 354/1/4
f 355/1/4 356/1/4 357/1/4
f 357/1/4 356/1/4 358/1/4
f 359/1/4 360/1/4 361/1/4
f 361/1/4 360/1/4 362/1/4
f 363/1/4 364/1/4 365/1/4
f 365/1/4 364/1/4 366/1/4
f 367/1/4 368/1/4 369/1/4
f 369/1/4 368/1/4 370/1/4
f 373/1/5 372/1/5 371/1/5
f 374/1/5 372/1/5 373/1/5
f 377/1/5 376/1/5 375/1/5
f 378/1/5 376/1/5 377/1/5
f 381/1/5 380/1/5 379/1/5
f 382/1/5 380/1/5 381/1/5
f 385/1/5 384/1/5 383/1/5
f 386/1/5 384/1/5 385/1/5
f 391/1/5 388/1/5 387/1/5
f 392/2/5 389/2/5 388/2/5
f 392/1/5 388/1/5 391/1/5
f 393/1/5 390/1/5 389/1/5
f 393/2/5 389/2/5 392/2/5
f 394/1/5 390/1/5 393/1/5
f 399/1/5 396/1/5 395/1/5
f 400/2/5 397/2/5 396/2/5
f 400/1/5 396/1/5 399/1/5
f 401/1/5 398/1/5 397/1/5
f 401/2/5 397/2/5 400/2/5
f 402/1/5 398/1/5 401/1/5
f 407/1/5 404/1/5 403/1/5
f 408/2/5 405/2/5 404/2/5
f 408/1/5 404/1/5 407/1/5
f 409/1/5 406/1/5 405/1/5
f 409/2/5 405/2/5 408/2/5
f 410/1/5 406/1/5 409/1/5
f 417/1/5 412/1/5 411/1/5
f 417/1/5 413/1/5 412/1/5
f 418/2/5 414/2/5 413/2/5
f 418/1/5 413/1/5 417/1/5
f 419/1/5 416/1/5 415/1/5
f 419/2/5 414/2/5 418/2/5
f 419/1/5 415/1/5 414/1/5
f 420/1/5 416/1/5 419/1/5
f 423/1/5 422/1/5 421/1/5
f 424/1/5 422/1/5 423/1/5
f 427/1/5 426/1/5 425/1/5
f 428/1/5 426/1/5 427/1/5
f 431/1/5 430/1/5 429/1/5
f 432/1/5 430/1/5 431/1/5
f 435/1/5 434/1/5 433/1/5
f 436/1/5 434/1/5 435/1/5
f 439/1/5 438/1/5 437/1/5
f 440/1/5 438/1/5 439/1/5
f 441/1/6 442/1/6 443/1/6
f 443/1/6 442/1/6 444/1/6
f 444/1/6 442/1/6 445/1/6
f 445/1/6 442/1/6 446/1/6
f 447/1/6 448/1/6 453/1/6
f 448/2/6 449/2/6 454/2/6
f 453/1/6 448/1/6 454/1/6
f 449/1/6 450/1/6 455/1/6
f 454/2/6 449/2/6 455/2/6
f 450/2/6 451/2/6 456/2/6
f 455/1/6 450/1/6 456/1/6
f 451/1/6 452/1/6 457/1/6
f 456/2/6 451/2/6 457/2/6
f 457/1/6 452/1/6 458/1/6
f 459/1/6 460/1/6 465/1/6
f 460/2/6 461/2/6 466/2/6
f 465/1/6 460/1/6 466/1/6
f 461/1/6 462/1/6 467/1/6
f 466/2/6 461/2/6 467/2/6
f 462/2/6 463/2/6 468/2/6
f 467/1/6 462/1/6 468/1/6
f 463/1/6 464/1/6 469/1/6
f 468/2/6 463/2/6 469/2/6
f 469/1/6 464/1/6 470/1/6
f 471/1/6 472/1/6 477/1/6
f 472/2/6 473/2/6 478/2/6
f 477/1/6 472/1/6 478/1/6
f 473/1/6 474/1/6 479/1/6
f 478/2/6 473/2/6 479/2/6
f 479/1/6 474/1/6 480/1/6
f 480/1/6 474/1/6 481/1/6
f 474/2/6 475/2/6 482/2/6
f 481/1/6 474/1/6 482/1/6
f 475/1/6 476/1/6 483/1/6
f 482/2/6 475/2/6 483/2/6
f 483/1/6 476/1/6 484/1/6
f 480/1/6 481/1/6 485/1/6
f 485/1/6 481/1/6 486/1/6
f 487/1/6 488/1/6 495/1/6
f 488/2/6 489/2/6 496/2/6
f 495/1/6 488/1/6 496/1/6
f 489/1/6 490/1/6 497/1/6
f 496/2/6 489/2/6 497/2/6
f 497/1/6 490/1/6 498/1/6
f 491/1/6 492/1/6 499/1/6
f 492/2/6 493/2/6 500/2/6
f 499/1/6 492/1/6 500/1/6
f 493/1/6 494/1/6 501/1/6
f 500/2/6 493/2/6 501/2/6
f 501/1/6 494/1/6 502/1/6
f 498/2/6 499/2/6 503/2/6
f 503/2/6 499/2/6 504/2/6
f 505/1/6 506/1/6 509/1/6
f 509/1/6 506/1/6 510/1/6
f 507/1/6 508/1/6 511/1/6
f 511/1/6 508/1/6 512/1/6
f 513/1/6 514/1/6 521/1/6
f 514/2/6 515/2/6 522/2/6
f 521/1/6 514/1/6 522/1/6
f 515/1/6 516/1/6 523/1/6
f 522/2/6 515/2/6 523/2/6
f 523/1/6 516/1/6 524/1/6
f 517/1/6 518/1/6 525/1/6
f 518/2/6 519/2/6 526/2/6
f 525/1/6 518/1/6 526/1/6
f 519/1/6 520/1/6 527/1/6
f 526/2/6 519/2/6 527/2/6
f 527/1/6 520/1/6 528/1/6
f 524/2/6 525/2/6 529/2/6
f 529/2/6 525/2/6 530/2/6
f 531/1/6 532/1/6 539/1/6
f 532/2/6 533/2/6 540/2/6
f 539/1/6 532/1/6 540/1/6
f 533/1/6 534/1/6 541/1/6
f 540/2/6 533/2/6 541/2/6
f 541/1/6 534/1/6 542/1/6
f 535/1/6 536/1/6 545/1/6
f 536/2/6 537/2/6 546/2/6
f 545/1/6 536/1/6 546/1/6
f 537/1/6 538/1/6 547/1/6
f 546/2/6 537/2/6 547/2/6
f 547/1/6 538/1/6 548/1/6
f 543/2/6 544/2/6 549/2/6
f 549/2/6 544/2/6 550/2/6
f 551/1/6 552/1/6 557/1/6
f 552/2/6 553/2/6 558/2/6
f 557/1/6 552/1/6 558/1/6
f 553/1/6 554/1/6 559/1/6
f 558/2/6 553/2/6 559/2/6
f 554/2/6 555/2/6 560/2/6
f 559/1/6 554/1/6 560/1/6
f 555/1/6 556/1/6 561/1/6
f 560/2/6 555/2/6 561/2/6
f 561/1/6 556/1/6 562/1/6
f 563/1/6 564/1/6 569/1/6
f 564/2/6 565/2/6 570/2/6
f 569/1/6 564/1/6 570/1/6
f 565/1/6 566/1/6 571/1/6
f 570/2/6 565/2/6 571/2/6
f 566/2/6 567/2/6 572/2/6
f 571/1/6 566/1/6 572/1/6
f 567/1/6 568/1/6 573/1/6
f 572/2/6 567/2/6 573/2/6
f 573/1/6 568/1/6 574/1/6
f 575/1/6 576/1/6 581/1/6
f 576/2/6 577/2/6 582/2/6
f 581/1/6 576/1/6 582/1/6
f 577/1/6 578/1/6 583/1/6
f 582/2/6 577/2/6 583/2/6
f 578/2/6 579/2/6 584/2/6
f 583/1/6 578/1/6 584/1/6
f 579/1/6 580/1/6 585/1/6
f 584/2/6 579/2/6 585/2/6
f 585/1/6 580/1/6 586/1/6
f 587/1/6 588/1/6 591/1/6
f 588/2/6 589/2/6 592/2/6
f 591/1/6 588/1/6 592/1/6
f 589/1/6 590/1/6 593/1/6
f 592/2/6 589/2/6 593/2/6
f 593/1/6 590/1/6 594/1/6
f 595/1/6 596/1/6 597/1/6
f 597/1/6 596/1/6 598/1/6
